<svg width="24" height="25" viewBox="0 0 24 25" fill="none" xmlns="http://www.w3.org/2000/svg">
<path d="M5.82474 14.434L5.09976 13.7452L5.82474 14.434ZM8 9.5C8 7.29086 9.79086 5.5 12 5.5V3.5C8.68629 3.5 6 6.18629 6 9.5H8ZM8 12.2564V9.5H6V12.2564H8ZM6 16.5C6 15.9658 6.20812 15.4823 6.54971 15.1228L5.09976 13.7452C4.41915 14.4616 4 15.4329 4 16.5H6ZM7 16.5H6V18.5H7V16.5ZM17 16.5H7V18.5H17V16.5ZM18 16.5H17V18.5H18V16.5ZM17.4503 15.1228C17.7919 15.4823 18 15.9658 18 16.5H20C20 15.4329 19.5809 14.4616 18.9002 13.7452L17.4503 15.1228ZM16 9.5V12.2564H18V9.5H16ZM12 5.5C14.2091 5.5 16 7.29086 16 9.5H18C18 6.18629 15.3137 3.5 12 3.5V5.5ZM18.9002 13.7452C18.2923 13.1054 18 12.6579 18 12.2564H16C16 13.55 16.8905 14.5336 17.4503 15.1228L18.9002 13.7452ZM4 16.5C4 17.6046 4.89543 18.5 6 18.5V16.5H4ZM18 18.5C19.1046 18.5 20 17.6046 20 16.5H18V18.5ZM6 12.2564C6 12.6579 5.70766 13.1054 5.09976 13.7452L6.54971 15.1228C7.10947 14.5336 8 13.55 8 12.2564H6Z" fill="black"/>
<path d="M13.7976 20.3767C13.6312 20.7179 13.3712 21.0046 13.048 21.2035C12.7247 21.4023 12.3516 21.5051 11.9721 21.4998C11.5926 21.4945 11.2224 21.3813 10.9049 21.1735C10.5873 20.9657 10.3354 20.6718 10.1786 20.3262" stroke="black" stroke-width="2" stroke-linecap="round" stroke-linejoin="round"/>
<path d="M12 3.5V4.5" stroke="black" stroke-width="2" stroke-linecap="round" stroke-linejoin="round"/>
</svg>
