<svg width="24" height="25" viewBox="0 0 24 25" fill="none" xmlns="http://www.w3.org/2000/svg">
<path d="M23 19.4282C23 19.9587 22.7893 20.4674 22.4142 20.8424C22.0391 21.2175 21.5304 21.4282 21 21.4282H3C2.46957 21.4282 1.96086 21.2175 1.58579 20.8424C1.21071 20.4674 1 19.9587 1 19.4282V8.42822C1 7.89779 1.21071 7.38908 1.58579 7.01401C1.96086 6.63894 2.46957 6.42822 3 6.42822H7L9 3.42822H15L17 6.42822H21C21.5304 6.42822 22.0391 6.63894 22.4142 7.01401C22.7893 7.38908 23 7.89779 23 8.42822V19.4282Z" stroke="black" stroke-width="2" stroke-linecap="round" stroke-linejoin="round"/>
<path d="M12 17.4282C14.2091 17.4282 16 15.6374 16 13.4282C16 11.2191 14.2091 9.42822 12 9.42822C9.79086 9.42822 8 11.2191 8 13.4282C8 15.6374 9.79086 17.4282 12 17.4282Z" stroke="black" stroke-width="2" stroke-linecap="round" stroke-linejoin="round"/>
</svg>
