<svg width="25" height="25" viewBox="0 0 25 25" fill="none" xmlns="http://www.w3.org/2000/svg">
<path d="M9.5 12.6912C9.5 14.3512 10.84 15.6912 12.5 15.6912C14.16 15.6912 15.5 14.3512 15.5 12.6912C15.5 11.0312 14.16 9.69116 12.5 9.69116C10.84 9.69116 9.5 11.0312 9.5 12.6912Z" fill="white"/>
<path d="M8.5 9.69116C8.5 9.14116 8.05 8.69116 7.5 8.69116H5.59C6.97 6.30116 9.55 4.69116 12.5 4.69116C15.99 4.69116 18.95 6.93116 20.04 10.0512C20.18 10.4412 20.57 10.6912 20.98 10.6912C21.66 10.6912 22.16 10.0212 21.94 9.38116C20.57 5.48116 16.86 2.69116 12.5 2.69116C9.23 2.69116 6.32 4.27116 4.5 6.70116V5.69116C4.5 5.14116 4.05 4.69116 3.5 4.69116C2.95 4.69116 2.5 5.14116 2.5 5.69116V9.69116C2.5 10.2412 2.95 10.6912 3.5 10.6912H7.5C8.05 10.6912 8.5 10.2412 8.5 9.69116ZM16.5 15.6912C16.5 16.2412 16.95 16.6912 17.5 16.6912H19.41C18.03 19.0812 15.45 20.6912 12.5 20.6912C9.01 20.6912 6.05 18.4512 4.96 15.3312C4.88711 15.1415 4.75805 14.9785 4.59007 14.8642C4.4221 14.7498 4.22321 14.6895 4.02 14.6912C3.34 14.6912 2.84 15.3612 3.06 16.0012C4.43 19.9012 8.14 22.6912 12.5 22.6912C15.77 22.6912 18.68 21.1112 20.5 18.6812V19.6912C20.5 20.2412 20.95 20.6912 21.5 20.6912C22.05 20.6912 22.5 20.2412 22.5 19.6912V15.6912C22.5 15.1412 22.05 14.6912 21.5 14.6912H17.5C16.95 14.6912 16.5 15.1412 16.5 15.6912Z" fill="white"/>
</svg>
