<svg width="49" height="48" viewBox="0 0 49 48" fill="none" xmlns="http://www.w3.org/2000/svg">
<path fill-rule="evenodd" clip-rule="evenodd" d="M24.6675 44C35.7132 44 44.6675 35.0457 44.6675 24C44.6675 12.9543 35.7132 4 24.6675 4C13.6218 4 4.66748 12.9543 4.66748 24C4.66748 35.0457 13.6218 44 24.6675 44ZM34.591 20.0665C35.1721 19.4761 35.1646 18.5263 34.5742 17.9452C33.9838 17.3641 33.0341 17.3716 32.4529 17.962L22.3114 28.2655L16.9105 22.4686C16.3458 21.8625 15.3966 21.8289 14.7905 22.3936C14.1844 22.9583 14.1508 23.9075 14.7155 24.5136L21.1841 31.4565C21.463 31.7558 21.852 31.9283 22.261 31.9339C22.6701 31.9395 23.0637 31.7778 23.3506 31.4862L34.591 20.0665Z" fill="black"/>
</svg>
