<svg width="current" height="current" viewBox="0 0 25 24" fill="none" xmlns="http://www.w3.org/2000/svg">
<g clip-path="url(#clip0_435_4632)">
<path fill-rule="evenodd" clip-rule="evenodd" d="M12.6599 24C19.2873 24 24.6599 18.6274 24.6599 12C24.6599 5.37258 19.2873 0 12.6599 0C6.0325 0 0.659912 5.37258 0.659912 12C0.659912 18.6274 6.0325 24 12.6599 24ZM18.6853 9.71003C19.0727 9.31643 19.0677 8.68328 18.6741 8.29586C18.2805 7.90844 17.6473 7.91346 17.2599 8.30706L11.2482 14.4147L8.0789 11.013C7.70242 10.6089 7.06965 10.5865 6.66557 10.963C6.26149 11.3395 6.23911 11.9722 6.61559 12.3763L10.4967 16.5421C10.6827 16.7416 10.942 16.8566 11.2147 16.8603C11.4874 16.864 11.7498 16.7563 11.9411 16.5619L18.6853 9.71003Z" fill="current"/>
</g>
<defs>
<clipPath id="clip0_435_4632">
<rect width="24" height="24" fill="white" transform="translate(0.659912)"/>
</clipPath>
</defs>
</svg>
