<svg width="current" height="current" viewBox="0 0 25 25" fill="none" xmlns="http://www.w3.org/2000/svg">
<g clip-path="url(#clip0_1087_40262)">
<path fill-rule="evenodd" clip-rule="evenodd" d="M13.5366 4.06226C14.0097 4.06211 14.4653 4.24077 14.8122 4.56242C15.159 4.88408 15.3715 5.32496 15.407 5.79668L15.4117 5.93731V19.0627H16.3492V10.1562C16.3492 10.0465 16.3876 9.94022 16.4578 9.85593C16.5281 9.77165 16.6257 9.71467 16.7336 9.69492L16.818 9.68742H18.2242C18.6973 9.68727 19.1529 9.86593 19.4998 10.1876C19.8467 10.5092 20.0591 10.9501 20.0946 11.4218L20.0993 11.5625V19.0627H21.0368C21.2758 19.063 21.5056 19.1545 21.6794 19.3185C21.8531 19.4825 21.9577 19.7067 21.9717 19.9453C21.9857 20.1838 21.9081 20.4187 21.7547 20.602C21.6014 20.7852 21.3838 20.903 21.1465 20.9312L21.0368 20.9377H4.16134C3.92239 20.9375 3.69255 20.846 3.51879 20.6819C3.34503 20.5179 3.24047 20.2937 3.22647 20.0552C3.21246 19.8166 3.29007 19.5817 3.44344 19.3985C3.59681 19.2152 3.81437 19.0975 4.05165 19.0693L4.16134 19.0627H5.09887V5.93731C5.09872 5.46426 5.27738 5.00863 5.59904 4.66176C5.92069 4.31489 6.36157 4.10242 6.83329 4.06694L6.97392 4.06226H13.5366ZM11.6616 15.3126H8.84898V17.1876H11.6616V15.3126ZM11.6616 11.5625H8.84898V13.4375H11.6616V11.5625ZM11.6616 7.81236H8.84898V9.68742H11.6616V7.81236Z" fill="current"/>
</g>
<defs>
<clipPath id="clip0_1087_40262">
<rect width="24" height="24" fill="white" transform="translate(0.599121 0.5)"/>
</clipPath>
</defs>
</svg>
