<svg width="current" height="current" viewBox="0 0 24 25" fill="none" xmlns="http://www.w3.org/2000/svg">
<g clip-path="url(#clip0_1537_4230)">
<path d="M19.2034 4.5332C19.9908 4.53316 20.7485 4.83402 21.3214 5.37423C21.8943 5.91444 22.2392 6.65316 22.2854 7.43925L22.2905 7.62036V9.49015C22.2882 9.76808 22.2133 10.0406 22.0732 10.2806C21.9332 10.5207 21.7328 10.72 21.492 10.8588L21.3819 10.9185C21.0489 11.0819 20.7664 11.3322 20.564 11.643C20.3616 11.9538 20.247 12.3135 20.2322 12.6841C20.2175 13.0547 20.3031 13.4224 20.4801 13.7483C20.6571 14.0742 20.9189 14.3462 21.2378 14.5356L21.3819 14.6128C21.8275 14.833 22.2257 15.2878 22.2833 15.8888L22.2905 16.0411V17.9109C22.2906 18.6983 21.9897 19.456 21.4495 20.0289C20.9093 20.6019 20.1706 20.9467 19.3845 20.9929L19.2034 20.998H4.79663C4.00919 20.9981 3.25149 20.6972 2.67857 20.157C2.10565 19.6168 1.76081 18.8781 1.71462 18.092L1.70947 17.9109V16.0411C1.70947 15.4175 2.0717 14.9318 2.50802 14.6725L2.61813 14.6128C2.95106 14.4494 3.23365 14.199 3.43601 13.8882C3.63838 13.5774 3.753 13.2177 3.76776 12.8471C3.78252 12.4766 3.69687 12.1089 3.51986 11.783C3.34286 11.4571 3.08107 11.185 2.76219 10.9957L2.61813 10.9185C2.17255 10.6983 1.7743 10.2434 1.71668 9.64245L1.70947 9.49118V7.62036C1.70943 6.83292 2.01029 6.07522 2.5505 5.5023C3.09071 4.92938 3.82943 4.58455 4.61552 4.53835L4.79663 4.5332H19.2034ZM9.94189 9.67847C9.66897 9.67847 9.40723 9.78688 9.21424 9.97987C9.02126 10.1729 8.91284 10.4346 8.91284 10.7075V14.8237C8.91284 15.0967 9.02126 15.3584 9.21424 15.5514C9.40723 15.7444 9.66897 15.8528 9.94189 15.8528C10.2148 15.8528 10.4766 15.7444 10.6695 15.5514C10.8625 15.3584 10.9709 15.0967 10.9709 14.8237V10.7075C10.9709 10.4346 10.8625 10.1729 10.6695 9.97987C10.4766 9.78688 10.2148 9.67847 9.94189 9.67847Z" fill="url(#paint0_linear_1537_4230)"/>
</g>
<defs>
<linearGradient id="paint0_linear_1537_4230" x1="1.70947" y1="9.75592" x2="20.2422" y2="22.693" gradientUnits="userSpaceOnUse">
<stop stop-color="#525DE1"/>
<stop offset="1" stop-color="#CAC5FF"/>
</linearGradient>
<clipPath id="clip0_1537_4230">
<rect width="24" height="24" fill="white" transform="translate(0 0.765625)"/>
</clipPath>
</defs>
</svg>
