<svg xmlns="http://www.w3.org/2000/svg" width="25" height="25" viewBox="0 0 25 25" fill="none">
  <path d="M19.75 4.15527C20.5152 4.15523 21.2515 4.4476 21.8083 4.97256C22.365 5.49752 22.7001 6.21538 22.745 6.97927L22.75 7.15527V8.97227C22.7477 9.24236 22.675 9.50716 22.5388 9.74045C22.4027 9.97374 22.208 10.1674 21.974 10.3023L21.867 10.3603C21.5435 10.5191 21.2689 10.7623 21.0722 11.0644C20.8756 11.3664 20.7642 11.7159 20.7498 12.0761C20.7355 12.4362 20.8187 12.7935 20.9907 13.1102C21.1627 13.4269 21.4171 13.6912 21.727 13.8753L21.867 13.9503C22.3 14.1643 22.687 14.6063 22.743 15.1903L22.75 15.3383V17.1553C22.75 17.9205 22.4577 18.6568 21.9327 19.2135C21.4078 19.7703 20.6899 20.1054 19.926 20.1503L19.75 20.1553H5.75C4.98479 20.1553 4.24849 19.8629 3.69174 19.338C3.13499 18.813 2.79989 18.0952 2.755 17.3313L2.75 17.1553V15.3383C2.75 14.7323 3.102 14.2603 3.526 14.0083L3.633 13.9503C3.95653 13.7915 4.23114 13.5482 4.42779 13.2462C4.62445 12.9442 4.73583 12.5946 4.75017 12.2345C4.76452 11.8744 4.68129 11.5171 4.50928 11.2004C4.33727 10.8836 4.08288 10.6193 3.773 10.4353L3.633 10.3603C3.2 10.1463 2.813 9.70427 2.757 9.12027L2.75 8.97327V7.15527C2.74996 6.39006 3.04233 5.65376 3.56728 5.09701C4.09224 4.54027 4.81011 4.20517 5.574 4.16027L5.75 4.15527H19.75ZM19.75 6.15527H5.75C5.50507 6.15531 5.26866 6.24523 5.08563 6.40799C4.90259 6.57075 4.78566 6.79502 4.757 7.03827L4.75 7.15527V8.69027C5.34268 9.03188 5.83783 9.51981 6.18809 10.1074C6.53836 10.695 6.73203 11.3627 6.75059 12.0465C6.76915 12.7303 6.61198 13.4075 6.2941 14.0132C5.97623 14.619 5.50828 15.133 4.935 15.5063L4.75 15.6203V17.1553C4.75003 17.4002 4.83996 17.6366 5.00272 17.8196C5.16547 18.0027 5.38975 18.1196 5.633 18.1483L5.75 18.1553H19.75C19.9949 18.1552 20.2313 18.0653 20.4144 17.9026C20.5974 17.7398 20.7143 17.5155 20.743 17.2723L20.75 17.1553V15.6203C20.1573 15.2787 19.6622 14.7907 19.3119 14.2031C18.9616 13.6155 18.768 12.9479 18.7494 12.2641C18.7309 11.5802 18.888 10.9031 19.2059 10.2973C19.5238 9.69159 19.9917 9.17752 20.565 8.80427L20.75 8.69027V7.15527C20.75 6.91034 20.66 6.67394 20.4973 6.4909C20.3345 6.30787 20.1103 6.19093 19.867 6.16227L19.75 6.15527ZM10.75 9.15527C10.9949 9.15531 11.2313 9.24523 11.4144 9.40799C11.5974 9.57075 11.7143 9.79502 11.743 10.0383L11.75 10.1553V14.1553C11.7497 14.4102 11.6521 14.6553 11.4772 14.8406C11.3022 15.026 11.063 15.1375 10.8086 15.1524C10.5542 15.1674 10.3036 15.0846 10.1082 14.921C9.91271 14.7574 9.7871 14.5254 9.757 14.2723L9.75 14.1553V10.1553C9.75 9.89006 9.85536 9.6357 10.0429 9.44817C10.2304 9.26063 10.4848 9.15527 10.75 9.15527Z" fill="white"/>
</svg>