<svg width="current" height="current" viewBox="0 0 25 25"  xmlns="http://www.w3.org/2000/svg">
<path d="M19.3401 4.48047C20.1053 4.48043 20.8416 4.77279 21.3983 5.29775C21.9551 5.82271 22.2902 6.54058 22.3351 7.30447L22.3401 7.48047V9.29747C22.3378 9.56755 22.265 9.83236 22.1289 10.0656C21.9928 10.2989 21.7981 10.4926 21.5641 10.6275L21.4571 10.6855C21.1336 10.8443 20.8589 11.0875 20.6623 11.3896C20.4656 11.6916 20.3543 12.0411 20.3399 12.4013C20.3256 12.7614 20.4088 13.1187 20.5808 13.4354C20.7528 13.7521 21.0072 14.0164 21.3171 14.2005L21.4571 14.2755C21.8901 14.4895 22.2771 14.9315 22.3331 15.5155L22.3401 15.6635V17.4805C22.3401 18.2457 22.0478 18.982 21.5228 19.5387C20.9978 20.0955 20.28 20.4306 19.5161 20.4755L19.3401 20.4805H5.34009C4.57488 20.4805 3.83857 20.1881 3.28183 19.6632C2.72508 19.1382 2.38998 18.4204 2.34509 17.6565L2.34009 17.4805V15.6635C2.34009 15.0575 2.69209 14.5855 3.11609 14.3335L3.22309 14.2755C3.54662 14.1167 3.82123 13.8734 4.01788 13.5714C4.21453 13.2693 4.32592 12.9198 4.34026 12.5597C4.35461 12.1996 4.27137 11.8423 4.09936 11.5255C3.92736 11.2088 3.67297 10.9445 3.36309 10.7605L3.22309 10.6855C2.79009 10.4715 2.40309 10.0295 2.34709 9.44547L2.34009 9.29847V7.48047C2.34005 6.71526 2.63241 5.97895 3.15737 5.42221C3.68233 4.86546 4.40019 4.53036 5.16409 4.48547L5.34009 4.48047H19.3401ZM19.3401 6.48047H5.34009C5.09515 6.4805 4.85875 6.57042 4.67572 6.73318C4.49268 6.89594 4.37575 7.12022 4.34709 7.36347L4.34009 7.48047V9.01547C4.93277 9.35707 5.42792 9.845 5.77818 10.4326C6.12844 11.0202 6.32211 11.6879 6.34067 12.3717C6.35923 13.0555 6.20206 13.7327 5.88419 14.3384C5.56632 14.9441 5.09837 15.4582 4.52509 15.8315L4.34009 15.9455V17.4805C4.34012 17.7254 4.43004 17.9618 4.5928 18.1448C4.75556 18.3279 4.97984 18.4448 5.22309 18.4735L5.34009 18.4805H19.3401C19.585 18.4804 19.8214 18.3905 20.0045 18.2278C20.1875 18.065 20.3044 17.8407 20.3331 17.5975L20.3401 17.4805V15.9455C19.7474 15.6039 19.2523 15.1159 18.902 14.5283C18.5517 13.9407 18.3581 13.2731 18.3395 12.5893C18.3209 11.9054 18.4781 11.2283 18.796 10.6225C19.1139 10.0168 19.5818 9.50272 20.1551 9.12947L20.3401 9.01547V7.48047C20.3401 7.23554 20.2501 6.99913 20.0874 6.8161C19.9246 6.63306 19.7003 6.51613 19.4571 6.48747L19.3401 6.48047ZM10.3401 9.48047C10.585 9.4805 10.8214 9.57042 11.0045 9.73318C11.1875 9.89594 11.3044 10.1202 11.3331 10.3635L11.3401 10.4805V14.4805C11.3398 14.7353 11.2422 14.9805 11.0672 15.1658C10.8923 15.3512 10.6531 15.4627 10.3987 15.4776C10.1443 15.4926 9.89371 15.4098 9.69826 15.2462C9.5028 15.0826 9.37719 14.8506 9.34709 14.5975L9.34009 14.4805V10.4805C9.34009 10.2153 9.44545 9.9609 9.63298 9.77336C9.82052 9.58583 10.0749 9.48047 10.3401 9.48047Z" fill="current"/>
</svg>
