<svg width="current" height="current" viewBox="0 0 36 37" fill="none" xmlns="http://www.w3.org/2000/svg">
<path d="M23.873 9.50764C23.873 10.055 23.9809 10.5971 24.1903 11.1028C24.3998 11.6085 24.7068 12.068 25.0939 12.4551C25.481 12.8421 25.9405 13.1492 26.4462 13.3586C26.9519 13.5681 27.4939 13.6759 28.0413 13.6759C28.5887 13.6759 29.1307 13.5681 29.6365 13.3586C30.1422 13.1492 30.6017 12.8421 30.9888 12.4551C31.3758 12.068 31.6828 11.6085 31.8923 11.1028C32.1018 10.5971 32.2096 10.055 32.2096 9.50764C32.2096 8.40214 31.7705 7.34192 30.9888 6.56022C30.207 5.77851 29.1468 5.33936 28.0413 5.33936C26.9358 5.33936 25.8756 5.77851 25.0939 6.56022C24.3122 7.34192 23.873 8.40214 23.873 9.50764Z" stroke="current" stroke-width="2" stroke-linecap="round" stroke-linejoin="round"/>
<path d="M21.7876 22.015V19.9321C21.7876 18.2732 22.4466 16.6822 23.6197 15.5092C24.7927 14.3361 26.3837 13.6771 28.0426 13.6771C29.7016 13.6771 31.2925 14.3361 32.4656 15.5092C33.6386 16.6822 34.2976 18.2732 34.2976 19.9321V22.015M16.9713 22.0201H34.2976M9.26734 14.9307C10.4352 14.9307 11.5553 14.4667 12.3811 13.6409C13.207 12.8151 13.6709 11.695 13.6709 10.5271C13.6709 9.35921 13.207 8.23914 12.3811 7.41331C11.5553 6.58748 10.4352 6.12354 9.26734 6.12354C8.09944 6.12354 6.97938 6.58748 6.15355 7.41331C5.32772 8.23914 4.86377 9.35921 4.86377 10.5271C4.86377 11.695 5.32772 12.8151 6.15355 13.6409C6.97938 14.4667 8.09944 14.9307 9.26734 14.9307Z" stroke="current" stroke-width="2" stroke-linecap="round" stroke-linejoin="round"/>
<path d="M16.9714 22.6374C16.9714 20.5938 16.1596 18.634 14.7145 17.189C13.2695 15.7439 11.3096 14.9321 9.26608 14.9321C7.22251 14.9321 5.26264 15.7439 3.81762 17.189C2.3726 18.634 1.56079 20.5938 1.56079 22.6374V25.9391H4.86508L5.96565 34.7437H12.5691L13.6696 25.9391H16.9714V22.6374Z" stroke="current" stroke-width="2" stroke-linecap="round" stroke-linejoin="round"/>
</svg>
