<svg width="current" height="current" viewBox="0 0 13 13" fill="none" xmlns="http://www.w3.org/2000/svg">
<path d="M8.15596 2.06C8.51507 1.70103 9.00206 1.49942 9.50982 1.49951C10.0176 1.49961 10.5045 1.7014 10.8635 2.0605C11.2224 2.41961 11.424 2.9066 11.424 3.41436C11.4239 3.92211 11.2221 4.40903 10.863 4.768L10.629 5.002L7.92196 2.295L8.15596 2.061V2.06ZM7.21496 3.002L2.06996 8.146C2.00052 8.21576 1.95321 8.30447 1.93396 8.401L1.42996 10.901C1.41352 10.9818 1.41732 11.0654 1.44101 11.1444C1.46471 11.2234 1.50756 11.2953 1.56577 11.3537C1.62397 11.4121 1.69572 11.4552 1.77462 11.4791C1.85351 11.5031 1.93711 11.5072 2.01796 11.491L4.52196 10.991C4.61861 10.9715 4.70733 10.9238 4.77696 10.854L9.92196 5.709L7.21496 3.002Z" fill="current"/>
</svg>
