<svg width="40" height="40" viewBox="0 0 40 40" fill="none" xmlns="http://www.w3.org/2000/svg">
<path d="M33.3334 28.6249L30.0001 25.2916V6.66659H18.0834L14.7501 9.99992L12.3334 7.66659L16.6667 3.33325H30.0001C30.9167 3.33325 31.7017 3.65992 32.3551 4.31325C33.0084 4.96659 33.3345 5.75103 33.3334 6.66659V28.6249ZM34.1667 38.8333L10.0001 14.6666V33.3333H30.0001V29.9583L33.3334 33.2916V33.3333C33.3334 34.2499 33.0073 35.0349 32.3551 35.6883C31.7029 36.3416 30.9179 36.6677 30.0001 36.6666H10.0001C9.08342 36.6666 8.29897 36.3405 7.64675 35.6883C6.99453 35.036 6.66786 34.251 6.66675 33.3333V13.3333L7.66675 12.3333L1.16675 5.83325L3.54175 3.49992L36.5001 36.4583L34.1667 38.8333Z" fill="black"/>
</svg>
