<svg width="24" height="24" viewBox="0 0 24 24" fill="none" xmlns="http://www.w3.org/2000/svg">
<path d="M20 17.175L18 15.175V4H10.85L8.84995 6L7.39995 4.6L9.99995 2H18C18.5499 2 19.021 2.196 19.413 2.588C19.805 2.98 20.0006 3.45067 20 4V17.175ZM20.5 23.3L5.99995 8.8V20H18V17.975L20 19.975V20C20 20.55 19.8043 21.021 19.413 21.413C19.0216 21.805 18.5506 22.0007 18 22H5.99995C5.44995 22 4.97928 21.8043 4.58795 21.413C4.19662 21.0217 4.00062 20.5507 3.99995 20V8L4.59995 7.4L0.699951 3.5L2.12495 2.1L21.9 21.875L20.5 23.3Z" fill="black"/>
</svg>
