<svg width="32" height="33" viewBox="0 0 32 33" fill="none" xmlns="http://www.w3.org/2000/svg">
<path d="M26.6667 17.9813C26.6667 27.4626 18.608 29.8333 14.5773 29.8333C11.0533 29.8333 4 27.4626 4 17.9813C4 14.272 5.948 11.7813 7.81333 10.36C8.85067 9.56798 10.1733 10.356 10.3067 11.6546L10.4213 12.772C10.5613 14.132 11.7987 15.248 12.9453 14.5026C15.192 13.0426 16 9.53331 16 7.61064V7.17998C16 5.27331 17.9253 4.04664 19.4693 5.16398C22.8867 7.63331 26.6667 11.9453 26.6667 17.98V17.9813Z" stroke="black" stroke-width="2.5"/>
<path d="M10.6667 25.0933C10.6667 28.8853 13.9854 29.8333 15.6441 29.8333C17.0974 29.8333 20.0001 28.8853 20.0001 25.0933C20.0001 23.624 19.2134 22.6333 18.4534 22.0613C17.9227 21.6627 17.1774 22.0213 16.9947 22.66C16.7574 23.492 15.8974 24.0147 15.4587 23.268C15.0587 22.5853 15.0587 21.5613 15.0587 20.944C15.0587 20.096 14.2054 19.5467 13.5187 20.0453C12.1414 21.0453 10.6667 22.74 10.6667 25.0933Z" stroke="black" stroke-width="2.5"/>
</svg>
