<svg width="24" height="25" viewBox="0 0 24 25" fill="none" xmlns="http://www.w3.org/2000/svg">
<path d="M20 13.611C20 20.722 13.956 22.5 10.933 22.5C8.29 22.5 3 20.722 3 13.611C3 10.829 4.461 8.96104 5.86 7.89504C6.638 7.30104 7.63 7.89204 7.73 8.86604L7.816 9.70404C7.921 10.724 8.849 11.561 9.709 11.002C11.394 9.90704 12 7.27504 12 5.83304V5.51004C12 4.08004 13.444 3.16004 14.602 3.99804C17.165 5.85004 20 9.08404 20 13.61V13.611Z" stroke="black" stroke-width="2"/>
<path d="M8 18.9451C8 21.7891 10.489 22.5001 11.733 22.5001C12.823 22.5001 15 21.7891 15 18.9451C15 17.8431 14.41 17.1001 13.84 16.6711C13.442 16.3721 12.883 16.6411 12.746 17.1201C12.568 17.7441 11.923 18.1361 11.594 17.5761C11.294 17.0641 11.294 16.2961 11.294 15.8331C11.294 15.1971 10.654 14.7851 10.139 15.1591C9.106 15.9091 8 17.1801 8 18.9451Z" stroke="black" stroke-width="2"/>
</svg>
