<svg width="18" height="19" viewBox="0 0 18 19" fill="none" xmlns="http://www.w3.org/2000/svg">
<path d="M15 10.3333C15 15.6666 10.467 17.0001 8.19975 17.0001C6.2175 17.0001 2.25 15.6666 2.25 10.3333C2.25 8.24684 3.34575 6.84584 4.395 6.04634C4.9785 5.60084 5.7225 6.04409 5.7975 6.77459L5.862 7.40309C5.94075 8.16809 6.63675 8.79584 7.28175 8.37659C8.5455 7.55534 9 5.58134 9 4.49984V4.25759C9 3.18509 10.083 2.49509 10.9515 3.12359C12.8738 4.51259 15 6.93809 15 10.3326V10.3333Z" stroke="black"/>
<path d="M6 14.3339C6 16.4669 7.86675 17.0001 8.79975 17.0001C9.61725 17.0001 11.25 16.4669 11.25 14.3339C11.25 13.5074 10.8075 12.9501 10.38 12.6284C10.0815 12.4041 9.66225 12.6059 9.5595 12.9651C9.426 13.4331 8.94225 13.7271 8.6955 13.3071C8.4705 12.9231 8.4705 12.3471 8.4705 11.9999C8.4705 11.5229 7.9905 11.2139 7.60425 11.4944C6.8295 12.0569 6 13.0101 6 14.3339Z" stroke="black"/>
</svg>
