<svg width="49" height="49" viewBox="0 0 49 49" fill="none" xmlns="http://www.w3.org/2000/svg">
<path d="M26.5 8.69116H13.3C11.6198 8.69116 10.7798 8.69116 10.138 9.01814C9.57354 9.30576 9.1146 9.7647 8.82698 10.3292C8.5 10.9709 8.5 11.811 8.5 13.4912V35.8912C8.5 37.5713 8.5 38.4114 8.82698 39.0531C9.1146 39.6176 9.57354 40.0766 10.138 40.3642C10.7798 40.6912 11.6198 40.6912 13.3 40.6912H35.7C37.3802 40.6912 38.2202 40.6912 38.862 40.3642C39.4265 40.0766 39.8854 39.6176 40.173 39.0531C40.5 38.4114 40.5 37.5713 40.5 35.8912V22.6912" stroke="black" stroke-width="3" stroke-linecap="round" stroke-linejoin="round"/>
<path d="M8.5 32.6912L17.7929 23.3983C18.1834 23.0077 18.8166 23.0077 19.2071 23.3983L26.5 30.6912M26.5 30.6912L32.793 24.3983C33.1835 24.0077 33.8166 24.0077 34.2072 24.3983L40.5 30.6912M26.5 30.6912L31 35.1912" stroke="black" stroke-width="3" stroke-linecap="round" stroke-linejoin="round"/>
<path d="M36.5 6.69116V16.6912M36.5 16.6912L32.5 12.6912M36.5 16.6912L40.5 12.6912" stroke="black" stroke-width="3" stroke-linecap="round" stroke-linejoin="round"/>
</svg>
