<svg width="25" height="25" viewBox="0 0 25 25" fill="none" xmlns="http://www.w3.org/2000/svg">
<path d="M13.5 4.69116H9.3C7.61984 4.69116 6.77976 4.69116 6.13803 5.01814C5.57354 5.30576 5.1146 5.7647 4.82698 6.32919C4.5 6.97093 4.5 7.811 4.5 9.49116V15.8912C4.5 17.5713 4.5 18.4114 4.82698 19.0531C5.1146 19.6176 5.57354 20.0766 6.13803 20.3642C6.77976 20.6912 7.61984 20.6912 9.3 20.6912H15.7C17.3802 20.6912 18.2202 20.6912 18.862 20.3642C19.4265 20.0766 19.8854 19.6176 20.173 19.0531C20.5 18.4114 20.5 17.5713 20.5 15.8912V11.6912" stroke="black" stroke-width="2" stroke-linecap="round" stroke-linejoin="round"/>
<path d="M4.5 16.6912L8.79289 12.3983C9.18342 12.0077 9.81658 12.0077 10.2071 12.3983L13.5 15.6912M13.5 15.6912L16.2929 12.8983C16.6834 12.5077 17.3166 12.5077 17.7071 12.8983L20.5 15.6912M13.5 15.6912L15.75 17.9412" stroke="black" stroke-width="2" stroke-linecap="round" stroke-linejoin="round"/>
<path d="M18.5 3.69116V8.69116M18.5 8.69116L16.5 6.69116M18.5 8.69116L20.5 6.69116" stroke="black" stroke-width="2" stroke-linecap="round" stroke-linejoin="round"/>
</svg>
