<svg width="current" height="current" viewBox="0 0 25 25" fill="none" xmlns="http://www.w3.org/2000/svg">
<path d="M2.50757 12.1001C2.50757 7.3861 2.50757 5.0291 3.97157 3.5641C5.43757 2.1001 7.79357 2.1001 12.5076 2.1001C17.2216 2.1001 19.5786 2.1001 21.0426 3.5641C22.5076 5.0301 22.5076 7.3861 22.5076 12.1001C22.5076 16.8141 22.5076 19.1711 21.0426 20.6351C19.5796 22.1001 17.2216 22.1001 12.5076 22.1001C7.79357 22.1001 5.43657 22.1001 3.97157 20.6351C2.50757 19.1721 2.50757 16.8141 2.50757 12.1001Z" stroke="current" stroke-width="2"/>
<path d="M16.5076 10.1001C17.6121 10.1001 18.5076 9.20467 18.5076 8.1001C18.5076 6.99553 17.6121 6.1001 16.5076 6.1001C15.403 6.1001 14.5076 6.99553 14.5076 8.1001C14.5076 9.20467 15.403 10.1001 16.5076 10.1001Z" stroke="current" stroke-width="2"/>
<path d="M2.50757 12.6L4.25957 11.067C4.69871 10.6831 5.26731 10.4803 5.85029 10.4998C6.43327 10.5193 6.98706 10.7596 7.39957 11.172L11.6896 15.462C12.0225 15.7948 12.4621 15.9996 12.9311 16.0402C13.4001 16.0808 13.8684 15.9547 14.2536 15.684L14.5526 15.474C15.1082 15.0838 15.7797 14.8936 16.4574 14.9344C17.1351 14.9753 17.7789 15.2448 18.2836 15.699L21.5076 18.6" stroke="current" stroke-width="2" stroke-linecap="round"/>
</svg>
