<svg width="current" height="current" viewBox="0 0 24 25" fill="none" xmlns="http://www.w3.org/2000/svg">
<rect x="4.34375" y="12" width="15.3129" height="10.719" rx="1" fill="url(#paint0_linear_1537_6394)"/>
<rect x="2.8125" y="8.17188" width="18.3754" height="3.06257" rx="1" fill="url(#paint1_linear_1537_6394)"/>
<path d="M6.87793 5.49225C6.87793 4.56455 7.62998 3.8125 8.55768 3.8125H8.93903C10.0773 3.8125 11.0001 4.73529 11.0001 5.8736V7.172H8.55768C7.62998 7.172 6.87793 6.41995 6.87793 5.49225Z" stroke="url(#paint2_linear_1537_6394)" stroke-width="2"/>
<path d="M17.1221 5.49225C17.1221 4.56455 16.37 3.8125 15.4423 3.8125H15.061C13.9227 3.8125 12.9999 4.73529 12.9999 5.8736V7.172H15.4423C16.37 7.172 17.1221 6.41995 17.1221 5.49225Z" stroke="url(#paint3_linear_1537_6394)" stroke-width="2"/>
<defs>
<linearGradient id="paint0_linear_1537_6394" x1="4.34375" y1="15.4001" x2="16.8757" y2="25.398" gradientUnits="userSpaceOnUse">
<stop stop-color="#525DE1"/>
<stop offset="1" stop-color="#CAC5FF"/>
</linearGradient>
<linearGradient id="paint1_linear_1537_6394" x1="2.8125" y1="9.14334" x2="4.82518" y2="15.8873" gradientUnits="userSpaceOnUse">
<stop stop-color="#525DE1"/>
<stop offset="1" stop-color="#CAC5FF"/>
</linearGradient>
<linearGradient id="paint2_linear_1537_6394" x1="5.87793" y1="4.51256" x2="11.7056" y2="8.23022" gradientUnits="userSpaceOnUse">
<stop stop-color="#525DE1"/>
<stop offset="1" stop-color="#CAC5FF"/>
</linearGradient>
<linearGradient id="paint3_linear_1537_6394" x1="18.1221" y1="4.51256" x2="12.2944" y2="8.23022" gradientUnits="userSpaceOnUse">
<stop stop-color="#525DE1"/>
<stop offset="1" stop-color="#CAC5FF"/>
</linearGradient>
</defs>
</svg>
