<svg xmlns="http://www.w3.org/2000/svg" width="current" height="current" viewBox="0 0 25 24" fill="none">
  <path fill-rule="evenodd" clip-rule="evenodd" d="M9.40722 20.7714V17.7047C9.4072 16.9246 10.0431 16.2908 10.831 16.2856H13.7171C14.5087 16.2856 15.1505 16.9209 15.1505 17.7047V20.7809C15.1503 21.4432 15.6843 21.9845 16.353 22H18.2771C20.1951 22 21.75 20.4607 21.75 18.5618V9.83784C21.7398 9.09083 21.3855 8.38935 20.788 7.93303L14.2077 2.6853C13.0549 1.77157 11.4162 1.77157 10.2634 2.6853L3.71203 7.94256C3.11226 8.39702 2.75739 9.09967 2.75 9.84736V18.5618C2.75 20.4607 4.30488 22 6.22291 22H8.14696C8.83235 22 9.38797 21.4499 9.38797 20.7714" fill="url(#paint0_linear_1334_26561)"/>
  <defs>
    <linearGradient id="paint0_linear_1334_26561" x1="2.75" y1="8.34409" x2="22.6072" y2="18.8789" gradientUnits="userSpaceOnUse">
      <stop stop-color="#525DE1"/>
      <stop offset="1" stop-color="#CAC5FF"/>
    </linearGradient>
  </defs>
</svg>