<svg width="21" height="21" viewBox="0 0 21 21" fill="none" xmlns="http://www.w3.org/2000/svg">
<path d="M10.5 15.4282V15.4382M1.5 10.4282C1.5 11.6101 1.73279 12.7804 2.18508 13.8724C2.63738 14.9643 3.30031 15.9565 4.13604 16.7922C4.97177 17.6279 5.96392 18.2908 7.05585 18.7431C8.14778 19.1954 9.3181 19.4282 10.5 19.4282C11.6819 19.4282 12.8522 19.1954 13.9442 18.7431C15.0361 18.2908 16.0282 17.6279 16.864 16.7922C17.6997 15.9565 18.3626 14.9643 18.8149 13.8724C19.2672 12.7804 19.5 11.6101 19.5 10.4282C19.5 9.24633 19.2672 8.076 18.8149 6.98407C18.3626 5.89214 17.6997 4.89999 16.864 4.06426C16.0282 3.22853 15.0361 2.5656 13.9442 2.11331C12.8522 1.66101 11.6819 1.42822 10.5 1.42822C9.3181 1.42822 8.14778 1.66101 7.05585 2.11331C5.96392 2.5656 4.97177 3.22853 4.13604 4.06426C3.30031 4.89999 2.63738 5.89214 2.18508 6.98407C1.73279 8.076 1.5 9.24633 1.5 10.4282Z" stroke="white" stroke-width="2" stroke-linecap="round" stroke-linejoin="round"/>
<path d="M10.5 11.9281C10.4816 11.6035 10.5692 11.2817 10.7495 11.0112C10.9299 10.7406 11.1933 10.536 11.5 10.4281C11.8759 10.2844 12.2132 10.0554 12.4856 9.7591C12.7579 9.46282 12.9577 9.10737 13.0693 8.72073C13.1809 8.3341 13.2013 7.92684 13.1287 7.53101C13.0562 7.13518 12.8928 6.76159 12.6513 6.43966C12.4099 6.11772 12.097 5.85623 11.7373 5.67576C11.3776 5.4953 10.9809 5.40078 10.5785 5.39967C10.1761 5.39855 9.77892 5.49086 9.41824 5.66933C9.05756 5.8478 8.74323 6.10755 8.5 6.42814" stroke="white" stroke-width="2" stroke-linecap="round" stroke-linejoin="round"/>
</svg>
