<svg width="current" height="current" viewBox="0 0 25 25" fill="current" xmlns="http://www.w3.org/2000/svg">
<path fill-rule="evenodd" clip-rule="evenodd" d="M8.3084 6.18945H8.08594C7.8098 6.18945 7.58594 5.9656 7.58594 5.68945C7.58594 5.41331 7.8098 5.18945 8.08594 5.18945H8.8084H16.0323H16.7546C17.0307 5.18945 17.2546 5.41331 17.2546 5.68945C17.2546 5.9656 17.0307 6.18945 16.7546 6.18945H16.5323V8.57899C16.5323 10.1376 15.6651 11.4937 14.3869 12.1911C15.665 12.8885 16.5322 14.2445 16.5322 15.8031V18.1926H16.7546C17.0307 18.1926 17.2546 18.4165 17.2546 18.6926C17.2546 18.9688 17.0307 19.1926 16.7546 19.1926H16.0322L8.80831 19.1926L8.08594 19.1926C7.8098 19.1926 7.58594 18.9688 7.58594 18.6926C7.58594 18.4165 7.8098 18.1926 8.08594 18.1926H8.30831L8.30831 15.8031C8.30831 14.2445 9.1755 12.8884 10.4537 12.191C9.17555 11.4936 8.3084 10.1376 8.3084 8.57899V6.18945ZM9.3084 6.18945V8.57899C9.3084 10.2977 10.7017 11.6909 12.4203 11.6909C14.139 11.6909 15.5323 10.2977 15.5323 8.57899V6.18945H9.3084ZM15.5322 15.8031V18.1926L9.30831 18.1926L9.30831 15.8031C9.30831 14.0844 10.7016 12.6912 12.4202 12.6912C14.1389 12.6912 15.5322 14.0844 15.5322 15.8031Z" fill="current"/>
</svg>
