<svg width="25" height="25" viewBox="0 0 25 25" fill="none" xmlns="http://www.w3.org/2000/svg">
<path d="M19.5992 9.79997V5.49997C19.5992 4.94997 19.1492 4.49997 18.5992 4.49997H17.5992C17.0492 4.49997 16.5992 4.94997 16.5992 5.49997V7.09997L13.2692 4.09997C12.8892 3.75997 12.3092 3.75997 11.9292 4.09997L3.56922 11.63C3.22922 11.93 3.43922 12.5 3.89922 12.5H5.59922V19.5C5.59922 20.05 6.04922 20.5 6.59922 20.5H9.59922C10.1492 20.5 10.5992 20.05 10.5992 19.5V14.5H14.5992V19.5C14.5992 20.05 15.0492 20.5 15.5992 20.5H18.5992C19.1492 20.5 19.5992 20.05 19.5992 19.5V12.5H21.2992C21.7592 12.5 21.9792 11.93 21.6292 11.63L19.5992 9.79997ZM10.5992 10.5C10.5992 9.39997 11.4992 8.49997 12.5992 8.49997C13.6992 8.49997 14.5992 9.39997 14.5992 10.5H10.5992Z" fill="black"/>
</svg>
