<svg width="14" height="15" viewBox="0 0 14 15" fill="none" xmlns="http://www.w3.org/2000/svg">
<path d="M7.00008 1.59497C10.2218 1.59497 12.8334 4.20655 12.8334 7.4283C12.8334 10.6501 10.2218 13.2616 7.00008 13.2616C3.77833 13.2616 1.16675 10.6501 1.16675 7.4283C1.16675 4.20655 3.77833 1.59497 7.00008 1.59497ZM7.00008 2.76164C5.7624 2.76164 4.57542 3.2533 3.70025 4.12847C2.82508 5.00364 2.33341 6.19063 2.33341 7.4283C2.33341 8.66598 2.82508 9.85297 3.70025 10.7281C4.57542 11.6033 5.7624 12.095 7.00008 12.095C8.23776 12.095 9.42474 11.6033 10.2999 10.7281C11.1751 9.85297 11.6667 8.66598 11.6667 7.4283C11.6667 6.19063 11.1751 5.00364 10.2999 4.12847C9.42474 3.2533 8.23776 2.76164 7.00008 2.76164ZM6.99425 6.26164C7.31975 6.26164 7.58342 6.5253 7.58342 6.8508V9.8398C7.69462 9.90401 7.78152 10.0031 7.83066 10.1218C7.87979 10.2404 7.88841 10.3719 7.85518 10.496C7.82194 10.62 7.74871 10.7296 7.64684 10.8078C7.54497 10.8859 7.42016 10.9283 7.29175 10.9283H7.00592C6.92854 10.9283 6.85193 10.9131 6.78045 10.8835C6.70897 10.8538 6.64402 10.8105 6.58931 10.7557C6.5346 10.701 6.4912 10.6361 6.4616 10.5646C6.43199 10.4931 6.41675 10.4165 6.41675 10.3391V7.4283C6.26204 7.4283 6.11367 7.36685 6.00427 7.25745C5.89487 7.14805 5.83342 6.99968 5.83342 6.84497C5.83342 6.69026 5.89487 6.54189 6.00427 6.43249C6.11367 6.3231 6.26204 6.26164 6.41675 6.26164H6.99425ZM7.00008 4.51164C7.15479 4.51164 7.30316 4.5731 7.41256 4.68249C7.52196 4.79189 7.58342 4.94026 7.58342 5.09497C7.58342 5.24968 7.52196 5.39805 7.41256 5.50745C7.30316 5.61685 7.15479 5.6783 7.00008 5.6783C6.84537 5.6783 6.697 5.61685 6.5876 5.50745C6.47821 5.39805 6.41675 5.24968 6.41675 5.09497C6.41675 4.94026 6.47821 4.79189 6.5876 4.68249C6.697 4.5731 6.84537 4.51164 7.00008 4.51164Z" fill="black"/>
</svg>
