<svg width="current" height="current" viewBox="0 0 202 51" fill="none" xmlns="http://www.w3.org/2000/svg">
<path d="M40.1651 49.7227V17.5913L27.616 41.5175H22.3067L9.7575 17.5913V49.7227H0.242188V0.767121H10.447L24.9268 28.6236L39.5446 0.767121H49.6805V49.7227H40.1651Z" fill="#4E5AE0"/>
<path d="M80.7938 50.0675C77.2083 50.0675 73.9446 49.378 71.0026 47.9989C68.1067 46.6199 65.6014 44.7582 63.4869 42.4139C61.4184 40.0235 59.8095 37.3574 58.6603 34.4155C57.5111 31.4276 56.9365 28.3707 56.9365 25.2449C56.9365 21.9812 57.5341 18.8784 58.7293 15.9365C59.9704 12.9486 61.6482 10.3054 63.7627 8.00704C65.9232 5.66268 68.4514 3.82397 71.3474 2.49091C74.2893 1.11188 77.5071 0.422363 81.0006 0.422363C84.5401 0.422363 87.7579 1.13486 90.6538 2.55986C93.5958 3.98486 96.101 5.89252 98.1696 8.28284C100.238 10.6732 101.847 13.3393 102.996 16.2812C104.145 19.2232 104.72 22.257 104.72 25.3828C104.72 28.6006 104.122 31.7034 102.927 34.6913C101.732 37.6332 100.054 40.2764 97.8938 42.6207C95.7793 44.9191 93.251 46.7348 90.3091 48.0679C87.4131 49.401 84.2413 50.0675 80.7938 50.0675ZM66.5898 25.2449C66.5898 27.3594 66.9115 29.405 67.5551 31.3816C68.1986 33.3582 69.118 35.128 70.3131 36.6909C71.5543 38.2078 73.0482 39.426 74.795 40.3453C76.5877 41.2187 78.6103 41.6554 80.8627 41.6554C83.1611 41.6554 85.2067 41.1957 86.9994 40.2764C88.7922 39.311 90.2861 38.0469 91.4813 36.484C92.6764 34.8752 93.5728 33.1054 94.1704 31.1748C94.8139 29.1982 95.1357 27.2215 95.1357 25.2449C95.1357 23.1304 94.7909 21.1078 94.1014 19.1772C93.4579 17.2006 92.5155 15.4538 91.2744 13.9369C90.0793 12.374 88.5853 11.1558 86.7926 10.2824C85.0458 9.36308 83.0692 8.90341 80.8627 8.90341C78.5184 8.90341 76.4498 9.38607 74.6571 10.3514C72.9103 11.2707 71.4393 12.5119 70.2442 14.0748C69.049 15.6377 68.1297 17.3844 67.4861 19.3151C66.8885 21.2457 66.5898 23.2223 66.5898 25.2449Z" fill="#4E5AE0"/>
<path d="M109.054 24.9002C109.054 21.9123 109.583 18.9933 110.64 16.1433C111.743 13.2474 113.329 10.6272 115.398 8.28284C117.466 5.89252 119.995 4.00784 122.982 2.62881C125.97 1.20381 129.372 0.491314 133.187 0.491314C137.692 0.491314 141.576 1.47962 144.84 3.45623C148.15 5.43284 150.609 8.00704 152.218 11.1788L144.909 16.2123C144.082 14.3736 143.001 12.9256 141.668 11.8683C140.335 10.7651 138.91 10.0066 137.393 9.59292C135.876 9.13325 134.382 8.90341 132.911 8.90341C130.521 8.90341 128.43 9.38607 126.637 10.3514C124.89 11.3167 123.419 12.5808 122.224 14.1437C121.029 15.7066 120.132 17.4534 119.535 19.384C118.983 21.3147 118.707 23.2453 118.707 25.176C118.707 27.3365 119.052 29.428 119.742 31.4506C120.431 33.4272 121.397 35.1969 122.638 36.7598C123.925 38.2768 125.442 39.4949 127.188 40.4143C128.981 41.2877 130.935 41.7243 133.049 41.7243C134.566 41.7243 136.106 41.4715 137.669 40.9659C139.232 40.4602 140.68 39.6558 142.013 38.5526C143.346 37.4494 144.38 36.0244 145.116 34.2776L152.907 38.7594C151.942 41.1957 150.356 43.2643 148.15 44.9651C145.989 46.6659 143.553 47.953 140.841 48.8264C138.129 49.6997 135.44 50.1364 132.774 50.1364C129.28 50.1364 126.085 49.4239 123.189 47.9989C120.293 46.528 117.788 44.5973 115.674 42.207C113.605 39.7707 111.973 37.0586 110.778 34.0707C109.629 31.0369 109.054 27.98 109.054 24.9002Z" fill="#4E5AE0"/>
<path d="M180.043 50.0675C176.136 50.0675 172.803 49.4239 170.045 48.1368C167.333 46.8038 165.127 44.9881 163.426 42.6897C161.771 40.3913 160.553 37.7941 159.771 34.8981C158.99 31.9562 158.599 28.8994 158.599 25.7276V0.767121H168.114V25.7276C168.114 27.7502 168.298 29.7268 168.666 31.6574C169.08 33.5421 169.746 35.2429 170.666 36.7598C171.585 38.2768 172.803 39.4719 174.32 40.3453C175.837 41.2187 177.722 41.6554 179.974 41.6554C182.273 41.6554 184.18 41.2187 185.697 40.3453C187.26 39.426 188.478 38.2078 189.352 36.6909C190.271 35.174 190.937 33.4731 191.351 31.5885C191.765 29.6578 191.972 27.7042 191.972 25.7276V0.767121H201.418V25.7276C201.418 29.0832 201.004 32.232 200.177 35.174C199.395 38.1159 198.131 40.7131 196.385 42.9655C194.684 45.1719 192.477 46.9187 189.765 48.2058C187.053 49.4469 183.812 50.0675 180.043 50.0675Z" fill="#4E5AE0"/>
</svg>
