<svg width="current" height="current" viewBox="0 0 25 25" fill="none" xmlns="http://www.w3.org/2000/svg">
<path d="M12.737 19.1473L12.7232 19.1576L12.7102 19.1687C12.6738 19.1998 12.6276 19.2169 12.5798 19.2169C12.5323 19.2169 12.4865 19.2001 12.4503 19.1695C12.3421 19.0757 11.0876 17.988 9.86071 16.4595C8.60892 14.9 7.47594 12.9906 7.47485 11.2559C7.48896 9.9118 8.03264 8.62744 8.98795 7.68169C9.94385 6.73535 11.2346 6.20452 12.5797 6.20459H12.5798C13.9249 6.20452 15.2157 6.73535 16.1716 7.68169C17.1269 8.62744 17.6706 9.91181 17.6847 11.2559C17.6836 12.9916 16.5582 14.9016 15.3114 16.4602C14.6983 17.2266 14.0765 17.8831 13.5926 18.3592C13.3509 18.597 13.1446 18.7888 12.9924 18.9258C12.9162 18.9943 12.8541 19.0486 12.8084 19.0877C12.7584 19.1305 12.7369 19.1474 12.737 19.1473ZM10.9396 13.4138L11.2174 12.9981L10.9396 13.4138C11.4251 13.7382 11.9959 13.9113 12.5798 13.9113C13.3627 13.9113 14.1136 13.6003 14.6672 13.0467C15.2209 12.493 15.5319 11.7421 15.5319 10.9592C15.5319 10.3753 15.3588 9.80454 15.0344 9.31906C14.71 8.83359 14.2489 8.4552 13.7095 8.23176C13.1701 8.00832 12.5765 7.94986 12.0038 8.06377C11.4312 8.17768 10.9051 8.45884 10.4923 8.87171C10.0794 9.28457 9.79825 9.81059 9.68434 10.3833C9.57043 10.9559 9.62889 11.5495 9.85233 12.0889C10.0758 12.6284 10.4542 13.0894 10.9396 13.4138Z" stroke="current"/>
</svg>
