<svg width="current" height="current" viewBox="0 0 25 25" fill="current" xmlns="http://www.w3.org/2000/svg">
<path d="M12.5798 1.19116C10.261 1.19105 8.03596 2.1061 6.38815 3.73743C4.74034 5.36877 3.80297 7.58454 3.77979 9.90316C3.77979 15.9312 11.5348 22.6412 11.8648 22.9272C12.064 23.0976 12.3176 23.1912 12.5798 23.1912C12.842 23.1912 13.0955 23.0976 13.2948 22.9272C13.6798 22.6412 21.3798 15.9312 21.3798 9.90316C21.3566 7.58454 20.4192 5.36877 18.7714 3.73743C17.1236 2.1061 14.8985 1.19105 12.5798 1.19116ZM12.5798 13.2912C11.8183 13.2912 11.074 13.0654 10.4408 12.6423C9.80771 12.2193 9.31424 11.618 9.02285 10.9145C8.73145 10.211 8.65521 9.43689 8.80376 8.69006C8.95231 7.94323 9.31899 7.25723 9.85742 6.7188C10.3959 6.18037 11.0819 5.81369 11.8287 5.66514C12.5755 5.51658 13.3496 5.59283 14.0531 5.88422C14.7566 6.17562 15.3579 6.66909 15.7809 7.30221C16.204 7.93534 16.4298 8.6797 16.4298 9.44116C16.4298 10.4622 16.0242 11.4415 15.3021 12.1635C14.5801 12.8855 13.6009 13.2912 12.5798 13.2912Z" fill="current"/>
</svg>
