<svg width="current" height="current" viewBox="0 0 24 25" fill="none" xmlns="http://www.w3.org/2000/svg">
<path d="M10.5 19.6912C10.5 20.5162 11.175 21.1912 12 21.1912C12.825 21.1912 13.5 20.5162 13.5 19.6912C13.5 18.8662 12.825 18.1912 12 18.1912C11.175 18.1912 10.5 18.8662 10.5 19.6912ZM10.5 4.69116C10.5 5.51616 11.175 6.19116 12 6.19116C12.825 6.19116 13.5 5.51616 13.5 4.69116C13.5 3.86616 12.825 3.19116 12 3.19116C11.175 3.19116 10.5 3.86616 10.5 4.69116ZM10.5 12.1912C10.5 13.0162 11.175 13.6912 12 13.6912C12.825 13.6912 13.5 13.0162 13.5 12.1912C13.5 11.3662 12.825 10.6912 12 10.6912C11.175 10.6912 10.5 11.3662 10.5 12.1912Z" fill="current"/>
</svg>
