<svg width="current" height="current" viewBox="0 0 24 25" fill="none" xmlns="http://www.w3.org/2000/svg">
<path fill-rule="evenodd" clip-rule="evenodd" d="M12 1.86523C9.79837 1.86512 7.6857 2.73395 6.12113 4.28287C4.55656 5.8318 3.66655 7.93563 3.64453 10.1371C3.64453 15.8506 10.9821 22.2094 11.3194 22.5017L11.3211 22.5032C11.5103 22.665 11.751 22.7539 12 22.7539C12.2489 22.7539 12.4897 22.665 12.6789 22.5032C13.0444 22.2316 20.3554 15.8606 20.3554 10.1371C20.3334 7.93563 19.4434 5.8318 17.8788 4.28287C16.3142 2.73395 14.2016 1.86512 12 1.86523ZM11.5132 13.1879L12 13.631L12.4867 13.1879C14.2156 11.6201 15.357 10.5828 15.357 9.31721C15.357 8.27989 14.5446 7.47084 13.5106 7.47084C12.9265 7.47084 12.3659 7.74276 12 8.16911C11.6341 7.74276 11.0734 7.47084 10.4893 7.47084C9.45533 7.47084 8.64293 8.27989 8.64293 9.31721C8.64293 10.5828 9.78432 11.6201 11.5132 13.1879Z" fill="url(#paint0_linear_1537_5311)"/>
<defs>
<linearGradient id="paint0_linear_1537_5311" x1="3.64453" y1="8.49121" x2="22.3012" y2="16.8263" gradientUnits="userSpaceOnUse">
<stop stop-color="#525DE1"/>
<stop offset="1" stop-color="#CAC5FF"/>
</linearGradient>
</defs>
</svg>
