<svg width="current" height="current" viewBox="0 0 24 25" fill="current" xmlns="http://www.w3.org/2000/svg">
<g clip-path="url(#clip0_251_3977)">
<path fill-rule="evenodd" clip-rule="evenodd" d="M12 0.480469C12.5523 0.480469 13 0.928184 13 1.48047V3.43911C17.2245 3.90109 20.5794 7.25594 21.0414 11.4805H23C23.5523 11.4805 24 11.9282 24 12.4805C24 13.0328 23.5523 13.4805 23 13.4805H21.0414C20.5794 17.705 17.2245 21.0598 13 21.5218V23.4805C13 24.0328 12.5523 24.4805 12 24.4805C11.4477 24.4805 11 24.0328 11 23.4805V21.5218C6.77547 21.0598 3.42062 17.705 2.95864 13.4805H1C0.447715 13.4805 0 13.0328 0 12.4805C0 11.9282 0.447715 11.4805 1 11.4805H2.95864C3.42062 7.25594 6.77548 3.90109 11 3.43911V1.48047C11 0.928184 11.4477 0.480469 12 0.480469ZM11 5.45468C7.88138 5.89457 5.4141 8.36185 4.97421 11.4805H11V5.45468ZM4.97421 13.4805C5.4141 16.5991 7.88138 19.0664 11 19.5063V13.4805H4.97421ZM13 19.5063C16.1186 19.0664 18.5859 16.5991 19.0258 13.4805H13V19.5063ZM19.0258 11.4805C18.5859 8.36185 16.1186 5.89457 13 5.45468V11.4805H19.0258Z" fill="current"/>
</g>
<defs>
<clipPath id="clip0_251_3977">
<rect width="24" height="24" fill="white" transform="translate(0 0.480469)"/>
</clipPath>
</defs>
</svg>
