<svg width="71" height="74" viewBox="0 0 71 74" fill="none" xmlns="http://www.w3.org/2000/svg">
<g filter="url(#filter0_d_566_19021)">
<path d="M36.6869 63.6868L36.6594 63.7072L36.6333 63.7296C36.271 64.0394 35.8099 64.2097 35.3332 64.2097C34.8574 64.2097 34.3972 64.0401 34.0353 63.7314C34.0346 63.7308 34.0338 63.7302 34.0331 63.7296L34.0331 63.7295C33.5644 63.3233 28.1248 58.6094 22.8 51.9756C17.4184 45.271 12.3344 36.8233 12.3323 28.9732C12.3942 22.9147 14.844 17.1253 19.1498 12.8626C23.4568 8.59868 29.2726 6.20697 35.3331 6.20728H35.3332C41.3938 6.20697 47.2096 8.59868 51.5165 12.8626C55.8223 17.1253 58.2722 22.9147 58.3341 28.9732C58.3319 36.8254 53.2831 45.274 47.9215 51.9769C42.5852 58.6482 37.1329 63.3554 36.6869 63.6868Z" fill="#515BFF" stroke="white" stroke-width="2"/>
</g>
<defs>
<filter id="filter0_d_566_19021" x="-3.66675" y="0.208496" width="78" height="78" filterUnits="userSpaceOnUse" color-interpolation-filters="sRGB">
<feFlood flood-opacity="0" result="BackgroundImageFix"/>
<feColorMatrix in="SourceAlpha" type="matrix" values="0 0 0 0 0 0 0 0 0 0 0 0 0 0 0 0 0 0 127 0" result="hardAlpha"/>
<feOffset dy="4"/>
<feGaussianBlur stdDeviation="2"/>
<feComposite in2="hardAlpha" operator="out"/>
<feColorMatrix type="matrix" values="0 0 0 0 0 0 0 0 0 0 0 0 0 0 0 0 0 0 0.25 0"/>
<feBlend mode="normal" in2="BackgroundImageFix" result="effect1_dropShadow_566_19021"/>
<feBlend mode="normal" in="SourceGraphic" in2="effect1_dropShadow_566_19021" result="shape"/>
</filter>
</defs>
</svg>
