<svg width="41" height="45" viewBox="0 0 41 45" fill="none" xmlns="http://www.w3.org/2000/svg">
<g filter="url(#filter0_d_552_18837)">
<path d="M10.7922 7.39973C13.2888 4.92801 16.6602 3.54157 20.1734 3.54175C23.6867 3.54157 27.058 4.92801 29.5547 7.39973C32.0514 9.87145 33.4716 13.2287 33.5068 16.7417C33.5068 25.8751 21.8401 36.0417 21.2568 36.4751C20.9549 36.7333 20.5707 36.8752 20.1734 36.8752C19.7762 36.8752 19.392 36.7333 19.0901 36.4751L19.0874 36.4727C18.5489 36.0061 6.84009 25.8591 6.84009 16.7417C6.87522 13.2287 8.29547 9.87145 10.7922 7.39973Z" fill="#636363"/>
</g>
<path d="M17.9236 21.6152V22.3652C17.9236 22.962 18.1606 23.5343 18.5826 23.9562C19.0046 24.3782 19.5768 24.6152 20.1736 24.6152C20.7703 24.6152 21.3426 24.3782 21.7646 23.9562C22.1865 23.5343 22.4236 22.962 22.4236 22.3652V21.6152M26.9236 13.9105C26.4316 12.8404 25.7173 11.8875 24.8281 11.1152M13.4236 13.9105C13.9151 12.8406 14.6289 11.8877 15.5176 11.1152M18.6736 12.6152C18.6736 12.2174 18.8316 11.8359 19.1129 11.5546C19.3942 11.2733 19.7758 11.1152 20.1736 11.1152C20.5714 11.1152 20.9529 11.2733 21.2342 11.5546C21.5155 11.8359 21.6736 12.2174 21.6736 12.6152C22.5349 13.0225 23.2691 13.6565 23.7976 14.4492C24.3261 15.2419 24.6289 16.1635 24.6736 17.1152V19.3652C24.73 19.8315 24.8952 20.278 25.1557 20.6688C25.4162 21.0596 25.7649 21.3838 26.1736 21.6152H14.1736C14.5823 21.3838 14.9309 21.0596 15.1915 20.6688C15.452 20.278 15.6171 19.8315 15.6736 19.3652V17.1152C15.7183 16.1635 16.0211 15.2419 16.5495 14.4492C17.078 13.6565 17.8123 13.0225 18.6736 12.6152Z" stroke="white" stroke-linecap="round" stroke-linejoin="round"/>
<defs>
<filter id="filter0_d_552_18837" x="2.84009" y="3.54175" width="34.6667" height="41.3335" filterUnits="userSpaceOnUse" color-interpolation-filters="sRGB">
<feFlood flood-opacity="0" result="BackgroundImageFix"/>
<feColorMatrix in="SourceAlpha" type="matrix" values="0 0 0 0 0 0 0 0 0 0 0 0 0 0 0 0 0 0 127 0" result="hardAlpha"/>
<feOffset dy="4"/>
<feGaussianBlur stdDeviation="2"/>
<feComposite in2="hardAlpha" operator="out"/>
<feColorMatrix type="matrix" values="0 0 0 0 0 0 0 0 0 0 0 0 0 0 0 0 0 0 0.25 0"/>
<feBlend mode="normal" in2="BackgroundImageFix" result="effect1_dropShadow_552_18837"/>
<feBlend mode="normal" in="SourceGraphic" in2="effect1_dropShadow_552_18837" result="shape"/>
</filter>
</defs>
</svg>
