<svg width="41" height="45" viewBox="0 0 41 45" fill="none" xmlns="http://www.w3.org/2000/svg">
<g filter="url(#filter0_d_566_21593)">
<path d="M11.1181 7.36775C13.6148 4.89603 16.9861 3.50959 20.4993 3.50977C24.0126 3.50959 27.3839 4.89603 29.8806 7.36775C32.3773 9.83947 33.7976 13.1967 33.8327 16.7098C33.8327 25.8431 22.166 36.0098 21.5827 36.4431C21.2808 36.7013 20.8966 36.8432 20.4993 36.8432C20.1021 36.8432 19.7179 36.7013 19.416 36.4431L19.4133 36.4407C18.8749 35.9741 7.16602 25.8271 7.16602 16.7098C7.20115 13.1967 8.6214 9.83947 11.1181 7.36775Z" fill="#515BFF"/>
</g>
<g clip-path="url(#clip0_566_21593)">
<path d="M26.7158 12.9123H25.4221C25.7314 12.6873 25.9846 12.4342 26.0971 12.1248C26.2658 11.703 26.2658 10.9998 25.3939 10.1842C24.4658 9.28421 23.6221 9.28421 23.0877 9.42484C21.8783 9.73421 21.0627 11.1405 20.6127 12.153C20.1627 11.1405 19.3471 9.76234 18.1377 9.42484C17.6033 9.28421 16.7596 9.31234 15.8314 10.1842C14.9596 11.028 14.9877 11.703 15.1283 12.1248C15.2408 12.4342 15.4939 12.6873 15.8033 12.9123H14.2846C13.4689 12.9123 12.7939 13.5873 12.7939 14.403V16.2592C12.7939 17.0467 13.4408 17.6936 14.2283 17.7217V24.5842C14.2283 25.5405 15.0158 26.3561 16.0002 26.3561H25.1971C26.1533 26.3561 26.9689 25.5686 26.9689 24.5842V17.6936C27.6721 17.5811 28.2064 16.9623 28.2064 16.2311V14.3748C28.2064 13.5592 27.5314 12.9123 26.7158 12.9123ZM23.3971 10.6061C23.4252 10.6061 23.5096 10.578 23.5939 10.578C23.7908 10.578 24.1002 10.6623 24.5221 11.0561C24.8596 11.3655 24.9439 11.5905 24.9158 11.6467C24.7752 12.0405 23.3689 12.4623 21.7658 12.6311C22.1596 11.7592 22.7502 10.7748 23.3971 10.6061ZM16.6752 11.0842C17.0971 10.6905 17.4064 10.6061 17.6033 10.6061C17.6877 10.6061 17.7439 10.6342 17.8002 10.6342C18.4471 10.803 19.0658 11.7592 19.4596 12.6592C17.8564 12.4905 16.4502 12.0686 16.3096 11.6748C16.2814 11.5905 16.3658 11.3936 16.6752 11.0842ZM14.0596 16.2311V14.3748C14.0596 14.2623 14.1439 14.1498 14.2846 14.1498H26.7158C26.8283 14.1498 26.9408 14.2342 26.9408 14.3748V16.2311C26.9408 16.3436 26.8564 16.4561 26.7158 16.4561H14.2846C14.1721 16.4561 14.0596 16.3717 14.0596 16.2311ZM25.1971 25.0905H16.0002C15.7189 25.0905 15.4939 24.8655 15.4939 24.5842V17.7217H25.6752V24.5842C25.7033 24.8655 25.4783 25.0905 25.1971 25.0905Z" fill="white"/>
</g>
<defs>
<filter id="filter0_d_566_21593" x="3.16602" y="3.50977" width="34.667" height="41.333" filterUnits="userSpaceOnUse" color-interpolation-filters="sRGB">
<feFlood flood-opacity="0" result="BackgroundImageFix"/>
<feColorMatrix in="SourceAlpha" type="matrix" values="0 0 0 0 0 0 0 0 0 0 0 0 0 0 0 0 0 0 127 0" result="hardAlpha"/>
<feOffset dy="4"/>
<feGaussianBlur stdDeviation="2"/>
<feComposite in2="hardAlpha" operator="out"/>
<feColorMatrix type="matrix" values="0 0 0 0 0 0 0 0 0 0 0 0 0 0 0 0 0 0 0.25 0"/>
<feBlend mode="normal" in2="BackgroundImageFix" result="effect1_dropShadow_566_21593"/>
<feBlend mode="normal" in="SourceGraphic" in2="effect1_dropShadow_566_21593" result="shape"/>
</filter>
<clipPath id="clip0_566_21593">
<rect width="18" height="18" fill="white" transform="translate(11.5 8.83398)"/>
</clipPath>
</defs>
</svg>
