<svg width="70" height="74" viewBox="0 0 70 74" fill="none" xmlns="http://www.w3.org/2000/svg">
<g filter="url(#filter0_d_552_18937)">
<path d="M34.9999 5.20728C28.6759 5.20696 22.6072 7.70265 18.113 12.1519C13.6188 16.6012 11.0623 22.6444 10.999 28.9682C10.999 45.4088 32.1498 63.7095 33.0499 64.4895C33.5933 64.9543 34.2848 65.2097 34.9999 65.2097C35.715 65.2097 36.4066 64.9543 36.95 64.4895C38 63.7095 59.0008 45.4088 59.0008 28.9682C58.9376 22.6444 56.381 16.6012 51.8868 12.1519C47.3926 7.70265 41.324 5.20696 34.9999 5.20728Z" fill="#636363"/>
<path d="M45.6667 30.6898C45.6667 40.1711 37.608 42.5418 33.5773 42.5418C30.0533 42.5418 23 40.1711 23 30.6898C23 26.9805 24.948 24.4898 26.8133 23.0685C27.8507 22.2765 29.1733 23.0645 29.3067 24.3631L29.4213 25.4805C29.5613 26.8405 30.7987 27.9565 31.9453 27.2111C34.192 25.7511 35 22.2418 35 20.3191V19.8885C35 17.9818 36.9253 16.7551 38.4693 17.8725C41.8867 20.3418 45.6667 24.6538 45.6667 30.6885V30.6898Z" stroke="white" stroke-width="2.5"/>
<path d="M29.6667 37.8018C29.6667 41.5938 32.9854 42.5418 34.6441 42.5418C36.0974 42.5418 39.0001 41.5938 39.0001 37.8018C39.0001 36.3325 38.2134 35.3418 37.4534 34.7698C36.9227 34.3712 36.1774 34.7298 35.9947 35.3685C35.7574 36.2005 34.8974 36.7232 34.4587 35.9765C34.0587 35.2938 34.0587 34.2698 34.0587 33.6525C34.0587 32.8045 33.2054 32.2552 32.5187 32.7538C31.1414 33.7538 29.6667 35.4485 29.6667 37.8018Z" stroke="white" stroke-width="2.5"/>
</g>
<defs>
<filter id="filter0_d_552_18937" x="-4" y="0.208496" width="78" height="78" filterUnits="userSpaceOnUse" color-interpolation-filters="sRGB">
<feFlood flood-opacity="0" result="BackgroundImageFix"/>
<feColorMatrix in="SourceAlpha" type="matrix" values="0 0 0 0 0 0 0 0 0 0 0 0 0 0 0 0 0 0 127 0" result="hardAlpha"/>
<feOffset dy="4"/>
<feGaussianBlur stdDeviation="2"/>
<feComposite in2="hardAlpha" operator="out"/>
<feColorMatrix type="matrix" values="0 0 0 0 0 0 0 0 0 0 0 0 0 0 0 0 0 0 0.25 0"/>
<feBlend mode="normal" in2="BackgroundImageFix" result="effect1_dropShadow_552_18937"/>
<feBlend mode="normal" in="SourceGraphic" in2="effect1_dropShadow_552_18937" result="shape"/>
</filter>
</defs>
</svg>
