<svg width="70" height="74" viewBox="0 0 70 74" fill="none" xmlns="http://www.w3.org/2000/svg">
<g filter="url(#filter0_d_566_21597)">
<path d="M34.9999 5.58301C28.6759 5.58269 22.6072 8.07838 18.113 12.5276C13.6188 16.9769 11.0623 23.0201 10.999 29.3439C10.999 45.7845 32.1498 64.0852 33.0499 64.8652C33.5933 65.33 34.2848 65.5854 34.9999 65.5854C35.715 65.5854 36.4066 65.33 36.95 64.8652C38 64.0852 59.0008 45.7845 59.0008 29.3439C58.9376 23.0201 56.381 16.9769 51.8868 12.5276C47.3926 8.07838 41.324 5.58269 34.9999 5.58301Z" fill="#515BFF"/>
<path d="M45.6667 31.065C45.6667 40.5464 37.608 42.917 33.5773 42.917C30.0533 42.917 23 40.5464 23 31.065C23 27.3557 24.948 24.865 26.8133 23.4437C27.8507 22.6517 29.1733 23.4397 29.3067 24.7384L29.4213 25.8557C29.5613 27.2157 30.7987 28.3317 31.9453 27.5864C34.192 26.1264 35 22.617 35 20.6944V20.2637C35 18.357 36.9253 17.1304 38.4693 18.2477C41.8867 20.717 45.6667 25.029 45.6667 31.0637V31.065Z" stroke="white" stroke-width="2.5"/>
<path d="M29.667 38.1771C29.667 41.9691 32.9857 42.9171 34.6443 42.9171C36.0977 42.9171 39.0003 41.9691 39.0003 38.1771C39.0003 36.7077 38.2137 35.7171 37.4537 35.1451C36.923 34.7464 36.1777 35.1051 35.995 35.7437C35.7577 36.5757 34.8977 37.0984 34.459 36.3517C34.059 35.6691 34.059 34.6451 34.059 34.0277C34.059 33.1797 33.2057 32.6304 32.519 33.1291C31.1417 34.1291 29.667 35.8237 29.667 38.1771Z" stroke="white" stroke-width="2.5"/>
</g>
<defs>
<filter id="filter0_d_566_21597" x="-4" y="0.583984" width="78" height="78" filterUnits="userSpaceOnUse" color-interpolation-filters="sRGB">
<feFlood flood-opacity="0" result="BackgroundImageFix"/>
<feColorMatrix in="SourceAlpha" type="matrix" values="0 0 0 0 0 0 0 0 0 0 0 0 0 0 0 0 0 0 127 0" result="hardAlpha"/>
<feOffset dy="4"/>
<feGaussianBlur stdDeviation="2"/>
<feComposite in2="hardAlpha" operator="out"/>
<feColorMatrix type="matrix" values="0 0 0 0 0 0 0 0 0 0 0 0 0 0 0 0 0 0 0.25 0"/>
<feBlend mode="normal" in2="BackgroundImageFix" result="effect1_dropShadow_566_21597"/>
<feBlend mode="normal" in="SourceGraphic" in2="effect1_dropShadow_566_21597" result="shape"/>
</filter>
</defs>
</svg>
