<svg width="71" height="74" viewBox="0 0 71 74" fill="none" xmlns="http://www.w3.org/2000/svg">
<g filter="url(#filter0_d_940_16818)">
<path d="M37.0646 64.3223L37.037 64.3427L37.0109 64.3651C36.6487 64.6749 36.1876 64.8452 35.7109 64.8452C35.2351 64.8452 34.7749 64.6756 34.413 64.3669C34.4122 64.3663 34.4115 64.3657 34.4108 64.3651L34.4108 64.365C33.942 63.9588 28.5025 59.2449 23.1777 52.6111C17.7961 45.9065 12.7121 37.4588 12.71 29.6087C12.7719 23.5502 15.2217 17.7608 19.5275 13.4981C23.8345 9.23417 29.6502 6.84247 35.7108 6.84277H35.7109C41.7715 6.84247 47.5873 9.23417 51.8942 13.4981C56.2 17.7608 58.6499 23.5502 58.7118 29.6087C58.7096 37.4609 53.6608 45.9095 48.2992 52.6124C42.9629 59.2837 37.5106 63.9909 37.0646 64.3223Z" fill="#515BFF" stroke="white" stroke-width="2"/>
<path d="M46.7607 21.094H44.4607C45.0107 20.694 45.4607 20.244 45.6607 19.694C45.9607 18.944 45.9607 17.694 44.4107 16.244C42.7607 14.644 41.2607 14.644 40.3107 14.894C38.1607 15.444 36.7107 17.944 35.9107 19.744C35.1107 17.944 33.6607 15.494 31.5107 14.894C30.5607 14.644 29.0607 14.694 27.4107 16.244C25.8607 17.744 25.9107 18.944 26.1607 19.694C26.3607 20.244 26.8107 20.694 27.3607 21.094H24.6607C23.2107 21.094 22.0107 22.294 22.0107 23.744V27.044C22.0107 28.444 23.1607 29.594 24.5607 29.644V41.844C24.5607 43.544 25.9607 44.994 27.7107 44.994H44.0607C45.7607 44.994 47.2107 43.594 47.2107 41.844V29.594C48.4607 29.394 49.4107 28.294 49.4107 26.994V23.694C49.4107 22.244 48.2107 21.094 46.7607 21.094ZM40.8607 16.994C40.9107 16.994 41.0607 16.944 41.2107 16.944C41.5607 16.944 42.1107 17.094 42.8607 17.794C43.4607 18.344 43.6107 18.744 43.5607 18.844C43.3107 19.544 40.8107 20.294 37.9607 20.594C38.6607 19.044 39.7107 17.294 40.8607 16.994ZM28.9107 17.844C29.6607 17.144 30.2107 16.994 30.5607 16.994C30.7107 16.994 30.8107 17.044 30.9107 17.044C32.0607 17.344 33.1607 19.044 33.8607 20.644C31.0107 20.344 28.5107 19.594 28.2607 18.894C28.2107 18.744 28.3607 18.394 28.9107 17.844ZM24.2607 26.994V23.694C24.2607 23.494 24.4107 23.294 24.6607 23.294H46.7607C46.9607 23.294 47.1607 23.444 47.1607 23.694V26.994C47.1607 27.194 47.0107 27.394 46.7607 27.394H24.6607C24.4607 27.394 24.2607 27.244 24.2607 26.994ZM44.0607 42.744H27.7107C27.2107 42.744 26.8107 42.344 26.8107 41.844V29.644H44.9107V41.844C44.9607 42.344 44.5607 42.744 44.0607 42.744Z" fill="white"/>
</g>
<defs>
<filter id="filter0_d_940_16818" x="-3.28906" y="0.84375" width="78" height="78" filterUnits="userSpaceOnUse" color-interpolation-filters="sRGB">
<feFlood flood-opacity="0" result="BackgroundImageFix"/>
<feColorMatrix in="SourceAlpha" type="matrix" values="0 0 0 0 0 0 0 0 0 0 0 0 0 0 0 0 0 0 127 0" result="hardAlpha"/>
<feOffset dy="4"/>
<feGaussianBlur stdDeviation="2"/>
<feComposite in2="hardAlpha" operator="out"/>
<feColorMatrix type="matrix" values="0 0 0 0 0 0 0 0 0 0 0 0 0 0 0 0 0 0 0.25 0"/>
<feBlend mode="normal" in2="BackgroundImageFix" result="effect1_dropShadow_940_16818"/>
<feBlend mode="normal" in="SourceGraphic" in2="effect1_dropShadow_940_16818" result="shape"/>
</filter>
</defs>
</svg>
