<svg width="24" height="25" viewBox="0 0 24 25" fill="none" xmlns="http://www.w3.org/2000/svg">
<path d="M20.2876 5.91795H18.5626C18.9751 5.61795 19.3126 5.28045 19.4626 4.86795C19.6876 4.30545 19.6876 3.36795 18.5251 2.28045C17.2876 1.08045 16.1626 1.08045 15.4501 1.26795C13.8376 1.68045 12.7501 3.55545 12.1501 4.90545C11.5501 3.55545 10.4626 1.71795 8.8501 1.26795C8.1376 1.08045 7.0126 1.11795 5.7751 2.28045C4.6126 3.40545 4.6501 4.30545 4.8376 4.86795C4.9876 5.28045 5.3251 5.61795 5.7376 5.91795H3.7126C2.6251 5.91795 1.7251 6.81795 1.7251 7.90545V10.3804C1.7251 11.4304 2.5876 12.2929 3.6376 12.3304V21.4804C3.6376 22.7554 4.6876 23.8429 6.0001 23.8429H18.2626C19.5376 23.8429 20.6251 22.7929 20.6251 21.4804V12.2929C21.5626 12.1429 22.2751 11.3179 22.2751 10.3429V7.86795C22.2751 6.78045 21.3751 5.91795 20.2876 5.91795ZM15.8626 2.84295C15.9001 2.84295 16.0126 2.80545 16.1251 2.80545C16.3876 2.80545 16.8001 2.91795 17.3626 3.44295C17.8126 3.85545 17.9251 4.15545 17.8876 4.23045C17.7001 4.75545 15.8251 5.31795 13.6876 5.54295C14.2126 4.38045 15.0001 3.06795 15.8626 2.84295ZM6.9001 3.48045C7.4626 2.95545 7.8751 2.84295 8.1376 2.84295C8.2501 2.84295 8.3251 2.88045 8.4001 2.88045C9.2626 3.10545 10.0876 4.38045 10.6126 5.58045C8.4751 5.35545 6.6001 4.79295 6.4126 4.26795C6.3751 4.15545 6.4876 3.89295 6.9001 3.48045ZM3.4126 10.3429V7.86795C3.4126 7.71795 3.5251 7.56795 3.7126 7.56795H20.2876C20.4376 7.56795 20.5876 7.68045 20.5876 7.86795V10.3429C20.5876 10.4929 20.4751 10.6429 20.2876 10.6429H3.7126C3.5626 10.6429 3.4126 10.5304 3.4126 10.3429ZM18.2626 22.1554H6.0001C5.6251 22.1554 5.3251 21.8554 5.3251 21.4804V12.3304H18.9001V21.4804C18.9376 21.8554 18.6376 22.1554 18.2626 22.1554Z" fill="black"/>
</svg>
