<svg width="36" height="37" viewBox="0 0 36 37" fill="none" xmlns="http://www.w3.org/2000/svg">
<path d="M30.4312 8.65622H27.8437C28.4624 8.20622 28.9687 7.69997 29.1937 7.08122C29.5312 6.23747 29.5312 4.83122 27.7874 3.19997C25.9312 1.39997 24.2437 1.39997 23.1749 1.68122C20.7562 2.29997 19.1249 5.11247 18.2249 7.13747C17.3249 5.11247 15.6937 2.35622 13.2749 1.68122C12.2062 1.39997 10.5187 1.45622 8.6624 3.19997C6.91865 4.88747 6.9749 6.23747 7.25615 7.08122C7.48115 7.69997 7.9874 8.20622 8.60615 8.65622H5.56865C3.9374 8.65622 2.5874 10.0062 2.5874 11.6375V15.35C2.5874 16.925 3.88115 18.2187 5.45615 18.275V32C5.45615 33.9125 7.03115 35.5437 8.9999 35.5437H27.3937C29.3062 35.5437 30.9374 33.9687 30.9374 32V18.2187C32.3437 17.9937 33.4124 16.7562 33.4124 15.2937V11.5812C33.4124 9.94997 32.0624 8.65622 30.4312 8.65622ZM23.7937 4.04372C23.8499 4.04372 24.0187 3.98747 24.1874 3.98747C24.5812 3.98747 25.1999 4.15622 26.0437 4.94372C26.7187 5.56247 26.8874 6.01247 26.8312 6.12497C26.5499 6.91247 23.7374 7.75622 20.5312 8.09372C21.3187 6.34997 22.4999 4.38122 23.7937 4.04372ZM10.3499 4.99997C11.1937 4.21247 11.8124 4.04372 12.2062 4.04372C12.3749 4.04372 12.4874 4.09997 12.5999 4.09997C13.8937 4.43747 15.1312 6.34997 15.9187 8.14997C12.7124 7.81247 9.8999 6.96872 9.61865 6.18122C9.5624 6.01247 9.73115 5.61872 10.3499 4.99997ZM5.11865 15.2937V11.5812C5.11865 11.3562 5.2874 11.1312 5.56865 11.1312H30.4312C30.6562 11.1312 30.8812 11.3 30.8812 11.5812V15.2937C30.8812 15.5187 30.7124 15.7437 30.4312 15.7437H5.56865C5.34365 15.7437 5.11865 15.575 5.11865 15.2937ZM27.3937 33.0125H8.9999C8.4374 33.0125 7.9874 32.5625 7.9874 32V18.275H28.3499V32C28.4062 32.5625 27.9562 33.0125 27.3937 33.0125Z" fill="black"/>
</svg>
