<svg xmlns="http://www.w3.org/2000/svg" width="32" height="32" viewBox="0 0 32 32" fill="none">
  <path d="M27.0498 7.2503H24.7498C25.2998 6.8503 25.7498 6.4003 25.9498 5.8503C26.2498 5.1003 26.2498 3.8503 24.6998 2.4003C23.0498 0.800296 21.5498 0.800296 20.5998 1.0503C18.4498 1.6003 16.9998 4.1003 16.1998 5.9003C15.3998 4.1003 13.9498 1.6503 11.7998 1.0503C10.8498 0.800296 9.3498 0.850296 7.6998 2.4003C6.1498 3.9003 6.1998 5.1003 6.4498 5.8503C6.6498 6.4003 7.0998 6.8503 7.64981 7.2503H4.9498C3.4998 7.2503 2.2998 8.4503 2.2998 9.9003V13.2003C2.2998 14.6003 3.4498 15.7503 4.8498 15.8003V28.0003C4.8498 29.7003 6.2498 31.1503 7.9998 31.1503H24.3498C26.0498 31.1503 27.4998 29.7503 27.4998 28.0003V15.7503C28.7498 15.5503 29.6998 14.4503 29.6998 13.1503V9.8503C29.6998 8.4003 28.4998 7.2503 27.0498 7.2503ZM21.1498 3.1503C21.1998 3.1503 21.3498 3.1003 21.4998 3.1003C21.8498 3.1003 22.3998 3.2503 23.1498 3.9503C23.7498 4.5003 23.8998 4.9003 23.8498 5.0003C23.5998 5.7003 21.0998 6.4503 18.2498 6.7503C18.9498 5.2003 19.9998 3.4503 21.1498 3.1503ZM9.1998 4.0003C9.9498 3.3003 10.4998 3.1503 10.8498 3.1503C10.9998 3.1503 11.0998 3.2003 11.1998 3.2003C12.3498 3.5003 13.4498 5.2003 14.1498 6.8003C11.2998 6.5003 8.7998 5.7503 8.5498 5.0503C8.4998 4.9003 8.6498 4.5503 9.1998 4.0003ZM4.5498 13.1503V9.8503C4.5498 9.6503 4.6998 9.4503 4.9498 9.4503H27.0498C27.2498 9.4503 27.4498 9.6003 27.4498 9.8503V13.1503C27.4498 13.3503 27.2998 13.5503 27.0498 13.5503H4.9498C4.7498 13.5503 4.5498 13.4003 4.5498 13.1503ZM24.3498 28.9003H7.9998C7.4998 28.9003 7.0998 28.5003 7.0998 28.0003V15.8003H25.1998V28.0003C25.2498 28.5003 24.8498 28.9003 24.3498 28.9003Z" fill="#C9CEFF"/>
</svg>