<svg width="48" height="49" viewBox="0 0 48 49" fill="none" xmlns="http://www.w3.org/2000/svg">
<path fill-rule="evenodd" clip-rule="evenodd" d="M28.2429 11.1924H10.7769C10.2246 11.1924 9.77686 11.6401 9.77686 12.1924V36.187C9.77686 36.7393 10.2246 37.187 10.7769 37.187H29.242V37.1856V29.5557V26.5557H29.2429V12.1924C29.2429 11.6401 28.7951 11.1924 28.2429 11.1924ZM32.2429 40.187V40.1856H37.2234C39.4325 40.1856 41.2234 38.3947 41.2234 36.1856V29.5557V26.5557H38.2234H32.2429V12.1924C32.2429 9.98324 30.452 8.19238 28.2429 8.19238H10.7769C8.56772 8.19238 6.77686 9.98324 6.77686 12.1924V36.187C6.77686 38.3962 8.56772 40.187 10.7769 40.187H29.2429H32.2429ZM37.2234 37.1856H32.2429V29.5557H38.2234V36.1856C38.2234 36.7378 37.7757 37.1856 37.2234 37.1856ZM14.7495 15.2304C13.9211 15.2304 13.2495 15.902 13.2495 16.7304C13.2495 17.5589 13.9211 18.2304 14.7495 18.2304H24.2704C25.0988 18.2304 25.7704 17.5589 25.7704 16.7304C25.7704 15.902 25.0988 15.2304 24.2704 15.2304H14.7495ZM13.2495 24.2799C13.2495 23.4515 13.9211 22.7799 14.7495 22.7799H24.2704C25.0988 22.7799 25.7704 23.4515 25.7704 24.2799C25.7704 25.1083 25.0988 25.7799 24.2704 25.7799H14.7495C13.9211 25.7799 13.2495 25.1083 13.2495 24.2799ZM14.7495 30.3254C13.9211 30.3254 13.2495 30.997 13.2495 31.8254C13.2495 32.6539 13.9211 33.3254 14.7495 33.3254H19.5877C20.4162 33.3254 21.0877 32.6539 21.0877 31.8254C21.0877 30.997 20.4162 30.3254 19.5877 30.3254H14.7495Z" fill="black"/>
</svg>
