<svg width="24" height="25" viewBox="0 0 24 25" fill="none" xmlns="http://www.w3.org/2000/svg">
<path fill-rule="evenodd" clip-rule="evenodd" d="M13.2162 4.18726H5.29102C4.18645 4.18726 3.29102 5.08269 3.29102 6.18726V18.1951C3.29102 19.2996 4.18645 20.1951 5.29102 20.1951H15.2162V6.18726C15.2162 5.08269 14.3207 4.18726 13.2162 4.18726ZM5.29102 2.18726C3.08188 2.18726 1.29102 3.97812 1.29102 6.18726V18.1951C1.29102 20.4042 3.08188 22.1951 5.29102 22.1951H15.2162H15.2162H17.2162H17.2162H18.7087C20.9179 22.1951 22.7087 20.4042 22.7087 18.1951V15.6716V13.6716H20.7087H17.2162H17.2162V6.18726C17.2162 3.97812 15.4253 2.18726 13.2162 2.18726H5.29102ZM20.7087 15.6716H17.2162V20.1951H18.7087C19.8133 20.1951 20.7087 19.2996 20.7087 18.1951V15.6716ZM6.27667 6.5271C5.72439 6.5271 5.27667 6.97481 5.27667 7.5271C5.27667 8.07938 5.72439 8.5271 6.27667 8.5271H12.2306C12.7828 8.5271 13.2306 8.07938 13.2306 7.5271C13.2306 6.97481 12.7828 6.5271 12.2306 6.5271H6.27667ZM5.27667 12.2458C5.27667 11.6936 5.72439 11.2458 6.27667 11.2458H12.2306C12.7828 11.2458 13.2306 11.6936 13.2306 12.2458C13.2306 12.7981 12.7828 13.2458 12.2306 13.2458H6.27667C5.72439 13.2458 5.27667 12.7981 5.27667 12.2458ZM6.27667 15.9646C5.72439 15.9646 5.27667 16.4123 5.27667 16.9646C5.27667 17.5169 5.72439 17.9646 6.27667 17.9646H9.30286C9.85515 17.9646 10.3029 17.5169 10.3029 16.9646C10.3029 16.4123 9.85515 15.9646 9.30286 15.9646H6.27667Z" fill="black"/>
</svg>
