<svg width="current" height="current" viewBox="0 0 31 32" fill="current" xmlns="http://www.w3.org/2000/svg">
<path d="M30.2001 9.75529L26.1001 5.42189L25.9501 5.26335C25.6501 5.05196 25.3501 4.94627 25.0501 4.94627L18.6001 5.52758C13.7501 1.24702 7.65011 -0.602599 2.50011 0.877099C1.70011 1.08848 1.05011 1.77549 0.850107 2.62103C-0.549892 8.01136 1.20011 14.5115 5.30011 19.5847L4.75011 26.2962V26.4019C4.75011 26.719 4.85011 27.0889 5.05011 27.3531L9.30011 31.8979C9.60011 32.215 9.95011 32.3735 10.3501 32.3735C10.5001 32.3735 10.6501 32.3735 10.7501 32.3207C11.2501 32.1621 11.6501 31.6865 11.8001 31.1581L12.4001 25.5035C13.1001 25.8734 13.8001 26.1905 14.5001 26.4547C14.7501 26.5604 15.0001 26.6133 15.2501 26.6133C15.9001 26.6133 16.5001 26.349 16.9501 25.8734L24.4001 17.9993C25.0501 17.3123 25.3001 16.2554 25.0001 15.357C24.7501 14.6172 24.4501 13.8773 24.1001 13.1375L29.3501 12.5033H29.4501C30.0001 12.3976 30.4001 11.9748 30.5501 11.3935C30.7001 10.7594 30.6001 10.1781 30.2001 9.75529ZM9.70011 29.0442L7.00011 26.1377L7.35011 21.8571C8.25011 22.7027 9.20011 23.4953 10.2001 24.1823L9.70011 29.0442ZM22.8001 16.2554L15.4001 24.0767C15.3501 24.1295 15.3001 24.1295 15.2501 24.1295C12.6501 23.1783 10.1501 21.4872 8.10011 19.3205C3.70011 14.6172 1.70011 8.32844 3.00011 3.25519C3.05011 3.20234 3.05011 3.14949 3.10011 3.14949C4.10011 2.88526 5.10011 2.72672 6.15011 2.72672C10.3001 2.72672 14.8001 4.78773 18.2501 8.48698C20.3001 10.6537 21.9001 13.296 22.8001 16.044C22.8501 16.1497 22.8501 16.2025 22.8001 16.2554ZM22.9001 10.8122C22.2501 9.75529 21.5001 8.69836 20.7001 7.74713L24.7501 7.3772L27.4501 10.2309L22.9001 10.8122Z" fill="current"/>
<path d="M27.1503 20.6946C27.0003 20.5889 26.4503 20.3246 25.8503 20.8531C25.3503 21.2759 23.0003 23.7596 22.5503 24.2353C19.3503 27.6174 19.3503 27.6174 19.5503 28.3573C19.6003 28.5687 19.7003 28.78 19.8503 28.8857C21.4503 30.5768 23.9003 30.9467 25.7503 30.9467C27.1503 30.9467 28.2003 30.7354 28.3003 30.6825C28.7503 30.5768 29.1003 30.2069 29.2003 29.7313C29.2503 29.467 30.3003 23.8125 27.4503 20.8002C27.3003 20.8002 27.2003 20.7474 27.1503 20.6946ZM27.0503 28.5687C25.7503 28.7272 23.7503 28.7272 22.2503 27.9345C23.3503 26.7719 25.3003 24.658 26.4003 23.5483C27.1503 25.028 27.1503 27.1947 27.0503 28.5687Z" fill="current"/>
<path d="M12.5501 8.85693C10.2501 8.85693 8.40015 10.8122 8.40015 13.2432C8.40015 15.6741 10.2501 17.6294 12.5501 17.6294C14.8501 17.6294 16.7001 15.6741 16.7001 13.2432C16.7001 10.8122 14.8501 8.85693 12.5501 8.85693ZM12.5501 15.3042C11.5001 15.3042 10.6501 14.4058 10.6501 13.296C10.6501 12.1863 11.5001 11.2879 12.5501 11.2879C13.6001 11.2879 14.5001 12.1334 14.5001 13.2432C14.5001 14.353 13.6001 15.3042 12.5501 15.3042Z" fill="current"/>
</svg>
