<svg width="current" height="current" viewBox="0 0 80 81" fill="none" xmlns="http://www.w3.org/2000/svg">
<path fill-rule="evenodd" clip-rule="evenodd" d="M72 40.9824C72 58.6555 57.6731 72.9824 40 72.9824C22.3269 72.9824 8 58.6555 8 40.9824C8 23.3093 22.3269 8.98242 40 8.98242C57.6731 8.98242 72 23.3093 72 40.9824ZM80 40.9824C80 63.0738 62.0914 80.9824 40 80.9824C17.9086 80.9824 0 63.0738 0 40.9824C0 18.891 17.9086 0.982422 40 0.982422C62.0914 0.982422 80 18.891 80 40.9824ZM50.6 30.9043L54.7 35.2377C55.1 35.6605 55.2 36.2418 55.05 36.876C54.9 37.4573 54.5 37.8801 53.95 37.9857H53.85L48.6 38.6199C48.95 39.3597 49.25 40.0996 49.5 40.8394C49.8 41.7378 49.55 42.7948 48.9 43.4818L41.45 51.3559C41 51.8315 40.4 52.0957 39.75 52.0957C39.5 52.0957 39.25 52.0429 39 51.9372C38.3 51.673 37.6 51.3559 36.9 50.986L36.3 56.6405C36.15 57.169 35.75 57.6446 35.25 57.8031C35.15 57.856 35 57.856 34.85 57.856C34.45 57.856 34.1 57.6974 33.8 57.3804L29.55 52.8356C29.35 52.5713 29.25 52.2014 29.25 51.8843V51.7786L29.8 45.0672C25.7 39.9939 23.95 33.4938 25.35 28.1035C25.55 27.2579 26.2 26.5709 27 26.3595C32.15 24.8798 38.25 26.7295 43.1 31.01L49.55 30.4287C49.85 30.4287 50.15 30.5344 50.45 30.7458L50.6 30.9043ZM31.5 51.6201L34.2 54.5267L34.7 49.6648C33.7 48.9778 32.75 48.1851 31.85 47.3396L31.5 51.6201ZM39.9 49.5591L47.3 41.7378C47.35 41.685 47.35 41.6321 47.3 41.5265C46.4 38.7784 44.8 36.1361 42.75 33.9694C39.3 30.2702 34.8 28.2092 30.65 28.2092C29.6 28.2092 28.6 28.3677 27.6 28.6319C27.5691 28.6319 27.5573 28.6521 27.541 28.68C27.5309 28.6973 27.5191 28.7174 27.5 28.7376C26.2 33.8109 28.2 40.0996 32.6 44.8029C34.65 46.9696 37.15 48.6607 39.75 49.6119C39.8 49.6119 39.85 49.6119 39.9 49.5591ZM45.2 33.2296C46 34.1808 46.75 35.2377 47.4 36.2947L51.95 35.7134L49.25 32.8596L45.2 33.2296ZM50.3502 46.3355C50.9502 45.807 51.5002 46.0713 51.6502 46.1769C51.7002 46.2298 51.8002 46.2826 51.9502 46.2826C54.8002 49.2949 53.7502 54.9494 53.7002 55.2137C53.6002 55.6893 53.2502 56.0592 52.8002 56.1649C52.7002 56.2178 51.6502 56.4291 50.2502 56.4291C48.4002 56.4291 45.9502 56.0592 44.3502 54.3681C44.2002 54.2624 44.1002 54.0511 44.0502 53.8397C44.013 53.702 43.9827 53.59 43.9786 53.477C43.9609 52.9827 44.4456 52.4705 47.0502 49.7177L47.0503 49.7176C47.5005 49.2417 49.8502 46.7582 50.3502 46.3355ZM46.7502 53.4169C48.2502 54.2096 50.2502 54.2096 51.5502 54.0511C51.6502 52.677 51.6502 50.5103 50.9002 49.0306C50.1398 49.7977 48.9734 51.0445 47.9623 52.1253C47.5106 52.6082 47.0898 53.0579 46.7502 53.4169ZM37.05 34.3393C34.75 34.3393 32.9 36.2946 32.9 38.7255C32.9 41.1564 34.75 43.1118 37.05 43.1118C39.35 43.1118 41.2 41.1564 41.2 38.7255C41.2 36.2946 39.35 34.3393 37.05 34.3393ZM37.05 40.7865C36 40.7865 35.15 39.8881 35.15 38.7784C35.15 37.6686 36 36.7702 37.05 36.7702C38.1 36.7702 39 37.6157 39 38.7255C39 39.8353 38.1 40.7865 37.05 40.7865Z" fill="url(#paint0_linear_566_24881)"/>
<defs>
<linearGradient id="paint0_linear_566_24881" x1="1.14206e-06" y1="26.3588" x2="81.6712" y2="71.9684" gradientUnits="userSpaceOnUse">
<stop stop-color="#525DE1"/>
<stop offset="1" stop-color="#CAC5FF"/>
</linearGradient>
</defs>
</svg>
