<svg xmlns="http://www.w3.org/2000/svg" width="32" height="32" viewBox="0 0 32 32" fill="none">
  <path d="M30.6999 10.2558L26.5999 5.92237L26.4499 5.76384C26.1499 5.55245 25.8499 5.44676 25.5499 5.44676L19.0999 6.02807C14.2499 1.74751 8.14986 -0.102111 2.99986 1.37759C2.19986 1.58897 1.54986 2.27598 1.34986 3.12152C-0.0501366 8.51185 1.69986 15.0119 5.79986 20.0852L5.24986 26.7967V26.9024C5.24986 27.2195 5.34986 27.5894 5.54986 27.8536L9.79986 32.3984C10.0999 32.7155 10.4499 32.874 10.8499 32.874C10.9999 32.874 11.1499 32.874 11.2499 32.8212C11.7499 32.6626 12.1499 32.187 12.2999 31.6586L12.8999 26.004C13.5999 26.3739 14.2999 26.691 14.9999 26.9552C15.2499 27.0609 15.4999 27.1138 15.7499 27.1138C16.3999 27.1138 16.9999 26.8495 17.4499 26.3739L24.8999 18.4998C25.5499 17.8128 25.7999 16.7559 25.4999 15.8575C25.2499 15.1176 24.9499 14.3778 24.5999 13.6379L29.8499 13.0038H29.9499C30.4999 12.8981 30.8999 12.4753 31.0499 11.894C31.1999 11.2599 31.0999 10.6785 30.6999 10.2558ZM10.1999 29.5447L7.49986 26.6382L7.84986 22.3576C8.74986 23.2031 9.69986 23.9958 10.6999 24.6828L10.1999 29.5447ZM23.2999 16.7559L15.8999 24.5771C15.8499 24.63 15.7999 24.63 15.7499 24.63C13.1499 23.6788 10.6499 21.9877 8.59986 19.821C4.19986 15.1176 2.19986 8.82892 3.49986 3.75567C3.54986 3.70283 3.54986 3.64998 3.59986 3.64998C4.59986 3.38575 5.59986 3.22721 6.64986 3.22721C10.7999 3.22721 15.2999 5.28822 18.7499 8.98746C20.7999 11.1542 22.3999 13.7965 23.2999 16.5445C23.3499 16.6502 23.3499 16.703 23.2999 16.7559ZM23.3999 11.3127C22.7499 10.2558 21.9999 9.19885 21.1999 8.24761L25.2499 7.87769L27.9499 10.7314L23.3999 11.3127Z" fill="#C9CEFF"/>
  <path d="M27.65 21.1953C27.5 21.0896 26.95 20.8254 26.35 21.3538C25.85 21.7766 23.5 24.2604 23.05 24.736C19.85 28.1182 19.85 28.1182 20.05 28.858C20.1 29.0694 20.2 29.2808 20.35 29.3865C21.95 31.0776 24.4 31.4475 26.25 31.4475C27.65 31.4475 28.7 31.2361 28.8 31.1832C29.25 31.0776 29.6 30.7076 29.7 30.232C29.75 29.9678 30.8 24.3132 27.95 21.301C27.8 21.301 27.7 21.2481 27.65 21.1953ZM27.55 29.0694C26.25 29.2279 24.25 29.2279 22.75 28.4352C23.85 27.2726 25.8 25.1588 26.9 24.049C27.65 25.5287 27.65 27.6954 27.55 29.0694Z" fill="#C9CEFF"/>
  <path d="M13.0499 9.35742C10.7499 9.35742 8.8999 11.3127 8.8999 13.7437C8.8999 16.1746 10.7499 18.1299 13.0499 18.1299C15.3499 18.1299 17.1999 16.1746 17.1999 13.7437C17.1999 11.3127 15.3499 9.35742 13.0499 9.35742ZM13.0499 15.8047C11.9999 15.8047 11.1499 14.9063 11.1499 13.7965C11.1499 12.6867 11.9999 11.7884 13.0499 11.7884C14.0999 11.7884 14.9999 12.6339 14.9999 13.7437C14.9999 14.8534 14.0999 15.8047 13.0499 15.8047Z" fill="#C9CEFF"/>
</svg>