<svg width="25" height="25" viewBox="0 0 25 25" fill="none" xmlns="http://www.w3.org/2000/svg">
<path fill-rule="evenodd" clip-rule="evenodd" d="M11.7564 4.31497C11.9777 4.13802 12.2491 4.03523 12.532 4.02119C12.815 4.00715 13.0952 4.08256 13.333 4.23672L13.4418 4.31497L17.3197 7.41768C17.5089 7.5689 17.6656 7.75678 17.7805 7.97004C17.8953 8.18331 17.9658 8.41757 17.9879 8.65877L17.9951 8.82155V19.1819H18.8945V11.5375C18.8944 11.4323 18.9313 11.3304 18.9987 11.2495C19.0661 11.1687 19.1597 11.114 19.2632 11.0951L19.3441 11.0879H19.7938C20.2476 11.0877 20.6846 11.2591 21.0174 11.5677C21.3501 11.8762 21.5539 12.2991 21.588 12.7517L21.5925 12.8866V19.9913C21.5924 20.2349 21.5024 20.47 21.3398 20.6513C21.1771 20.8327 20.9533 20.9477 20.7111 20.9743L20.6032 20.9806H4.59498C4.35121 20.9807 4.11598 20.8908 3.9344 20.7282C3.75283 20.5655 3.6377 20.3416 3.61111 20.0992L3.60571 19.9913V12.8866C3.60557 12.4328 3.77695 11.9957 4.08551 11.663C4.39406 11.3302 4.81698 11.1264 5.26949 11.0924L5.40439 11.0879H5.85406C5.9593 11.0878 6.06123 11.1247 6.14208 11.1921C6.22293 11.2595 6.27759 11.3531 6.29653 11.4566L6.30373 11.5375V19.1819H7.20306V8.82155C7.20305 8.57934 7.25195 8.33963 7.34684 8.11678C7.44173 7.89394 7.58064 7.69255 7.75526 7.5247L7.87847 7.41678L11.7564 4.31497ZM12.5991 10.1876C12.1221 10.1876 11.6646 10.3771 11.3272 10.7145C10.9899 11.0518 10.8004 11.5093 10.8004 11.9863C10.8004 12.4634 10.9899 12.9209 11.3272 13.2582C11.6646 13.5955 12.1221 13.785 12.5991 13.785C13.0761 13.785 13.5336 13.5955 13.8709 13.2582C14.2083 12.9209 14.3978 12.4634 14.3978 11.9863C14.3978 11.5093 14.2083 11.0518 13.8709 10.7145C13.5336 10.3771 13.0761 10.1876 12.5991 10.1876Z" fill="black"/>
</svg>
