<svg width="24" height="25" viewBox="0 0 24 25" fill="none" xmlns="http://www.w3.org/2000/svg">
<path d="M14 6.16586H13C13 6.60827 13.2907 6.99811 13.7148 7.12431L14 6.16586ZM15.3302 6.71734L14.8538 7.59656C15.2429 7.80742 15.7243 7.73741 16.0373 7.42445L15.3302 6.71734ZM16.2426 5.80489L15.5355 5.09778V5.09778L16.2426 5.80489ZM17.6569 5.80489L16.9498 6.51199L16.9498 6.51199L17.6569 5.80489ZM19.0711 7.2191L19.7782 6.51199V6.51199L19.0711 7.2191ZM19.0711 8.63331L18.364 7.92621L19.0711 8.63331ZM18.1586 9.54576L17.4515 8.83865C17.1386 9.15161 17.0686 9.63306 17.2794 10.0222L18.1586 9.54576ZM18.7101 10.876L17.7517 11.1612C17.8779 11.5853 18.2677 11.876 18.7101 11.876V10.876ZM18.7101 14.876V13.876C18.2677 13.876 17.8779 14.1667 17.7517 14.5907L18.7101 14.876ZM18.1586 16.2062L17.2794 15.7298C17.0686 16.1189 17.1386 16.6003 17.4515 16.9133L18.1586 16.2062ZM19.0711 17.1186L19.7782 16.4115V16.4115L19.0711 17.1186ZM19.0711 18.5329L18.364 17.8257L18.364 17.8257L19.0711 18.5329ZM17.6569 19.9471L18.364 20.6542V20.6542L17.6569 19.9471ZM15.3302 19.0346L16.0373 18.3275C15.7243 18.0145 15.2429 17.9445 14.8538 18.1554L15.3302 19.0346ZM14 19.5861L13.7148 18.6276C13.2907 18.7538 13 19.1437 13 19.5861H14ZM10 19.5861H11C11 19.1437 10.7093 18.7538 10.2853 18.6276L10 19.5861ZM8.6698 19.0346L9.14623 18.1554C8.7571 17.9445 8.27565 18.0145 7.96269 18.3275L8.6698 19.0346ZM7.75736 19.947L7.05026 19.2399L7.05026 19.2399L7.75736 19.947ZM6.34315 19.947L5.63604 20.6541H5.63604L6.34315 19.947ZM4.92894 18.5328L4.22183 19.2399H4.22183L4.92894 18.5328ZM4.92894 17.1186L4.22183 16.4115H4.22183L4.92894 17.1186ZM5.84138 16.2061L6.54849 16.9133C6.86144 16.6003 6.93146 16.1189 6.7206 15.7297L5.84138 16.2061ZM5.28989 14.876L6.24835 14.5907C6.12215 14.1667 5.73231 13.876 5.28989 13.876V14.876ZM5.28989 10.876V11.876C5.73231 11.876 6.12215 11.5853 6.24835 11.1612L5.28989 10.876ZM5.84138 9.5458L6.7206 10.0222C6.93146 9.6331 6.86145 9.15165 6.54849 8.83869L5.84138 9.5458ZM4.92894 8.63336L4.22183 9.34046H4.22183L4.92894 8.63336ZM4.92894 7.21914L5.63605 7.92625H5.63605L4.92894 7.21914ZM6.34315 5.80493L7.05026 6.51204L7.05026 6.51204L6.34315 5.80493ZM7.75737 5.80493L8.46447 5.09782V5.09782L7.75737 5.80493ZM8.6698 6.71736L7.9627 7.42447C8.27565 7.73743 8.7571 7.80744 9.14623 7.59658L8.6698 6.71736ZM10 6.16586L10.2853 7.12431C10.7093 6.99811 11 6.60827 11 6.16586H10ZM11 2.87598C9.89545 2.87598 9.00002 3.77141 9.00002 4.87598H11V4.87598V2.87598ZM13 2.87598H11V4.87598H13V2.87598ZM15 4.87598C15 3.77141 14.1046 2.87598 13 2.87598V4.87598H15ZM15 6.16586V4.87598H13V6.16586H15ZM15.8066 5.83813C15.3271 5.57831 14.8179 5.36592 14.2853 5.2074L13.7148 7.12431C14.1132 7.24289 14.4944 7.40185 14.8538 7.59656L15.8066 5.83813ZM15.5355 5.09778L14.6231 6.01024L16.0373 7.42445L16.9498 6.51199L15.5355 5.09778ZM18.364 5.09778C17.5829 4.31673 16.3166 4.31673 15.5355 5.09778L16.9498 6.51199V6.51199L18.364 5.09778ZM19.7782 6.51199L18.364 5.09778L16.9498 6.51199L18.364 7.92621L19.7782 6.51199ZM19.7782 9.34042C20.5592 8.55937 20.5592 7.29304 19.7782 6.51199L18.364 7.92621L18.364 7.92621L19.7782 9.34042ZM18.8657 10.2529L19.7782 9.34042L18.364 7.92621L17.4515 8.83865L18.8657 10.2529ZM19.6686 10.5907C19.5101 10.0581 19.2977 9.54883 19.0378 9.06933L17.2794 10.0222C17.4741 10.3815 17.6331 10.7628 17.7517 11.1612L19.6686 10.5907ZM18.7101 11.876H20V9.87598H18.7101V11.876ZM20 11.876H22C22 10.7714 21.1046 9.87598 20 9.87598V11.876ZM20 11.876V13.876H22V11.876H20ZM20 13.876V15.876C21.1046 15.876 22 14.9805 22 13.876H20ZM20 13.876H18.7101V15.876H20V13.876ZM19.0378 16.6826C19.2977 16.2031 19.5101 15.6939 19.6686 15.1612L17.7517 14.5907C17.6331 14.9892 17.4741 15.3704 17.2794 15.7298L19.0378 16.6826ZM19.7782 16.4115L18.8657 15.4991L17.4515 16.9133L18.364 17.8257L19.7782 16.4115ZM19.7782 19.24C20.5592 18.4589 20.5592 17.1926 19.7782 16.4115L18.364 17.8257H18.364L19.7782 19.24ZM18.364 20.6542L19.7782 19.24L18.364 17.8257L16.9498 19.24L18.364 20.6542ZM15.5355 20.6542C16.3166 21.4352 17.5829 21.4352 18.364 20.6542L16.9498 19.24L15.5355 20.6542ZM14.6231 19.7417L15.5355 20.6542L16.9498 19.24L16.0373 18.3275L14.6231 19.7417ZM14.2853 20.5446C14.8179 20.386 15.3271 20.1736 15.8066 19.9138L14.8538 18.1554C14.4944 18.3501 14.1132 18.5091 13.7148 18.6276L14.2853 20.5446ZM15 20.876V19.5861H13V20.876H15ZM13 22.876C14.1046 22.876 15 21.9805 15 20.876H13V22.876ZM11 22.876H13V20.876H11V22.876ZM9.00002 20.876C9.00002 21.9805 9.89545 22.876 11 22.876V20.876H9.00002ZM9.00002 19.5861V20.876H11V19.5861H9.00002ZM8.19337 19.9138C8.67287 20.1736 9.18213 20.386 9.71477 20.5446L10.2853 18.6276C9.88681 18.5091 9.50557 18.3501 9.14623 18.1554L8.19337 19.9138ZM8.46447 20.6541L9.3769 19.7417L7.96269 18.3275L7.05026 19.2399L8.46447 20.6541ZM5.63604 20.6541C6.41709 21.4352 7.68342 21.4352 8.46447 20.6541L7.05026 19.2399L5.63604 20.6541ZM4.22183 19.2399L5.63604 20.6541L7.05026 19.2399L5.63604 17.8257L4.22183 19.2399ZM4.22183 16.4115C3.44078 17.1925 3.44078 18.4589 4.22183 19.2399L5.63604 17.8257V17.8257L4.22183 16.4115ZM5.13427 15.499L4.22183 16.4115L5.63604 17.8257L6.54849 16.9133L5.13427 15.499ZM4.33144 15.1612C4.48996 15.6938 4.70234 16.2031 4.96217 16.6826L6.7206 15.7297C6.52589 15.3704 6.36693 14.9892 6.24835 14.5907L4.33144 15.1612ZM5.28989 13.876H4V15.876H5.28989V13.876ZM4 13.876H4H2C2 14.9805 2.89543 15.876 4 15.876V13.876ZM4 13.876V11.876H2V13.876H4ZM4 11.876V9.87598C2.89543 9.87598 2 10.7714 2 11.876H4ZM4 11.876H5.28989V9.87598H4V11.876ZM4.96217 9.06938C4.70235 9.54886 4.48996 10.0581 4.33144 10.5907L6.24835 11.1612C6.36693 10.7628 6.52589 10.3816 6.7206 10.0222L4.96217 9.06938ZM4.22183 9.34046L5.13428 10.2529L6.54849 8.83869L5.63605 7.92625L4.22183 9.34046ZM4.22183 6.51204C3.44078 7.29309 3.44079 8.55942 4.22183 9.34046L5.63605 7.92625L5.63605 7.92625L4.22183 6.51204ZM5.63605 5.09782L4.22183 6.51204L5.63605 7.92625L7.05026 6.51204L5.63605 5.09782ZM8.46447 5.09782C7.68343 4.31677 6.4171 4.31677 5.63605 5.09782L7.05026 6.51204V6.51204L8.46447 5.09782ZM9.37691 6.01026L8.46447 5.09782L7.05026 6.51204L7.9627 7.42447L9.37691 6.01026ZM9.71477 5.2074C9.18213 5.36592 8.67287 5.57832 8.19337 5.83815L9.14623 7.59658C9.50557 7.40186 9.88681 7.24289 10.2853 7.12431L9.71477 5.2074ZM9.00002 4.87598V6.16586H11V4.87598H9.00002Z" fill="black"/>
<circle cx="12" cy="12.876" r="3" stroke="black" stroke-width="2" stroke-linecap="round" stroke-linejoin="round"/>
</svg>
