<svg width="current" height="current" viewBox="0 0 24 25" fill="none" xmlns="http://www.w3.org/2000/svg">
<path fill-rule="evenodd" clip-rule="evenodd" d="M14.2498 6.00459C14.2499 5.24527 14.5158 4.50995 15.0015 3.92625C15.4871 3.34255 16.1618 2.94732 16.9084 2.80915C17.6551 2.67098 18.4265 2.7986 19.0889 3.16986C19.7512 3.54111 20.2627 4.13257 20.5345 4.84158C20.8063 5.55058 20.8212 6.33237 20.5768 7.05125C20.3323 7.77013 19.8438 8.38072 19.1962 8.77705C18.5485 9.17338 17.7825 9.33042 17.0311 9.22091C16.2797 9.11141 15.5904 8.74228 15.0828 8.17759L12.3658 9.65958L9.32581 11.3966C9.75082 12.1446 9.86228 13.0306 9.63581 13.8606L15.0828 16.8316C15.6157 16.2395 16.3475 15.8638 17.1392 15.7757C17.9309 15.6877 18.7274 15.8934 19.3774 16.354C20.0274 16.8145 20.4856 17.4977 20.665 18.2739C20.8444 19.05 20.7325 19.865 20.3505 20.564C19.9686 21.2631 19.3432 21.7975 18.5932 22.0659C17.8432 22.3342 17.0207 22.3177 16.282 22.0195C15.5433 21.7214 14.9399 21.1623 14.5862 20.4485C14.2326 19.7347 14.1535 18.9159 14.3638 18.1476L8.91681 15.1776C8.50169 15.6393 7.96299 15.9725 7.36445 16.1376C6.76592 16.3028 6.1326 16.293 5.53944 16.1095C4.94628 15.926 4.4181 15.5764 4.0174 15.1021C3.61669 14.6278 3.36024 14.0487 3.27837 13.4332C3.19651 12.8177 3.29267 12.1916 3.55546 11.6291C3.81826 11.0666 4.2367 10.5911 4.76127 10.2589C5.28585 9.92672 5.89459 9.75176 6.51549 9.75471C7.13638 9.75767 7.74343 9.93843 8.26481 10.2756L11.6348 8.34959L14.3638 6.86059C14.288 6.58158 14.2496 6.29372 14.2498 6.00459ZM17.4998 4.25459C17.27 4.25459 17.0424 4.29985 16.8301 4.3878C16.6178 4.47574 16.4249 4.60465 16.2624 4.76715C16.0999 4.92965 15.971 5.12257 15.883 5.33489C15.7951 5.54721 15.7498 5.77477 15.7498 6.00459C15.7498 6.2344 15.7951 6.46196 15.883 6.67428C15.971 6.8866 16.0999 7.07952 16.2624 7.24202C16.4249 7.40452 16.6178 7.53343 16.8301 7.62137C17.0424 7.70932 17.27 7.75459 17.4998 7.75459C17.9639 7.75459 18.4091 7.57021 18.7372 7.24202C19.0654 6.91383 19.2498 6.46871 19.2498 6.00459C19.2498 5.54046 19.0654 5.09534 18.7372 4.76715C18.4091 4.43896 17.9639 4.25459 17.4998 4.25459ZM6.49981 11.2546C6.03568 11.2546 5.59056 11.439 5.26238 11.7671C4.93419 12.0953 4.74981 12.5405 4.74981 13.0046C4.74981 13.4687 4.93419 13.9138 5.26238 14.242C5.59056 14.5702 6.03568 14.7546 6.49981 14.7546C6.96394 14.7546 7.40906 14.5702 7.73725 14.242C8.06544 13.9138 8.24981 13.4687 8.24981 13.0046C8.24981 12.5405 8.06544 12.0953 7.73725 11.7671C7.40906 11.439 6.96394 11.2546 6.49981 11.2546ZM15.7498 19.0046C15.7498 18.5405 15.9342 18.0953 16.2624 17.7671C16.5906 17.439 17.0357 17.2546 17.4998 17.2546C17.9639 17.2546 18.4091 17.439 18.7372 17.7671C19.0654 18.0953 19.2498 18.5405 19.2498 19.0046C19.2498 19.4687 19.0654 19.9138 18.7372 20.242C18.4091 20.5702 17.9639 20.7546 17.4998 20.7546C17.0357 20.7546 16.5906 20.5702 16.2624 20.242C15.9342 19.9138 15.7498 19.4687 15.7498 19.0046Z" fill="current"/>
</svg>
