<svg width="current" height="current" viewBox="0 0 48 49" fill="current" xmlns="http://www.w3.org/2000/svg">
<rect y="0.5" width="48" height="48" rx="24" fill="current"/>
<path fill-rule="evenodd" clip-rule="evenodd" d="M25.0422 17.0869L26.7734 20.5455C26.9431 20.8851 27.2706 21.1205 27.6504 21.175L31.5232 21.7325C32.4801 21.8706 32.8608 23.0303 32.1683 23.6948L29.3678 26.3858C29.0926 26.6504 28.9673 27.0308 29.0324 27.4044L29.6933 31.2035C29.8561 32.1433 28.8558 32.8603 28.0006 32.4157L24.5391 30.6207C24.1997 30.4446 23.7933 30.4446 23.453 30.6207L19.9915 32.4157C19.1363 32.8603 18.136 32.1433 18.2997 31.2035L18.9597 27.4044C19.0248 27.0308 18.8995 26.6504 18.6243 26.3858L15.8237 23.6948C15.1312 23.0303 15.512 21.8706 16.4689 21.7325L20.3417 21.175C20.7215 21.1205 21.05 20.8851 21.2197 20.5455L22.9499 17.0869C23.378 16.2318 24.6141 16.2318 25.0422 17.0869Z" fill="white"/>
<circle cx="23.9998" cy="24.4993" r="19.2105" stroke="white" stroke-width="2"/>
</svg>
