<svg width="81" height="81" viewBox="0 0 81 81" fill="none"  xmlns="http://www.w3.org/2000/svg">
<g id="icon/stamp">
<path id="Vector" d="M76.1535 40.6075C76.1535 20.8083 60.103 4.75781 40.3038 4.75781C20.5046 4.75781 4.4541 20.8083 4.4541 40.6075C4.4541 60.4067 20.5046 76.4572 40.3038 76.4572C60.103 76.4572 76.1535 60.4067 76.1535 40.6075Z" fill="url(#paint0_linear_589_8149)"/>
<path id="Vector_2" d="M40.3024 70.3236C56.7149 70.3236 70.0199 57.0186 70.0199 40.6062C70.0199 24.1936 56.7149 10.8887 40.3024 10.8887C23.8899 10.8887 10.585 24.1936 10.585 40.6062C10.585 57.0186 23.8899 70.3236 40.3024 70.3236Z" stroke="white" stroke-width="3.73434"/>
<g id="icon/star_map">
<path id="Vector_3" fill-rule="evenodd" clip-rule="evenodd" d="M41.7761 29.5632L44.2126 34.7172C44.4515 35.2231 44.9124 35.5741 45.4469 35.6551L50.8975 36.4859C52.2443 36.6919 52.7801 38.4199 51.8054 39.4101L47.864 43.4202C47.4767 43.8145 47.3003 44.3814 47.392 44.9381L48.3221 50.5995C48.5512 52 47.1434 53.0686 45.9398 52.4061L41.0681 49.7312C40.5904 49.4688 40.0184 49.4688 39.5395 49.7312L34.6677 52.4061C33.4641 53.0686 32.0563 52 32.2867 50.5995L33.2156 44.9381C33.3072 44.3814 33.1308 43.8145 32.7435 43.4202L28.8019 39.4101C27.8273 38.4199 28.3633 36.6919 29.71 36.4859L35.1606 35.6551C35.6951 35.5741 36.1575 35.2231 36.3963 34.7172L38.8314 29.5632C39.4339 28.2888 41.1736 28.2888 41.7761 29.5632Z" fill="white"/>
</g>
</g>
<defs>
<linearGradient id="paint0_linear_589_8149" x1="4.4541" y1="27.5012" x2="77.6513" y2="68.3785" gradientUnits="userSpaceOnUse">
<stop stop-color="#525DE1"/>
<stop offset="1" stop-color="#CAC5FF"/>
</linearGradient>
</defs>
</svg>
