<svg width="80" height="81" viewBox="0 0 80 81" fill="none" xmlns="http://www.w3.org/2000/svg">
<path d="M75.8498 40.5001C75.8498 20.7009 59.7993 4.65039 40.0001 4.65039C20.2009 4.65039 4.15039 20.7009 4.15039 40.5001C4.15039 60.2993 20.2009 76.3498 40.0001 76.3498C59.7993 76.3498 75.8498 60.2993 75.8498 40.5001Z" fill="#8A8A8A"/>
<path d="M39.9992 70.2164C56.4117 70.2164 69.7167 56.9114 69.7167 40.499C69.7167 24.0864 56.4117 10.7815 39.9992 10.7815C23.5866 10.7815 10.2817 24.0864 10.2817 40.499C10.2817 56.9114 23.5866 70.2164 39.9992 70.2164Z" stroke="white" stroke-width="3.73434"/>
<path fill-rule="evenodd" clip-rule="evenodd" d="M41.4724 29.4558L43.9089 34.6098C44.1477 35.1157 44.6087 35.4666 45.1432 35.5477L50.5938 36.3785C51.9406 36.5844 52.4764 38.3125 51.5017 39.3027L47.5603 43.3128C47.173 43.7071 46.9966 44.274 47.0882 44.8307L48.0184 50.4921C48.2475 51.8926 46.8397 52.9612 45.6361 52.2987L40.7643 49.6238C40.2867 49.3613 39.7147 49.3613 39.2358 49.6238L34.364 52.2987C33.1604 52.9612 31.7526 51.8926 31.983 50.4921L32.9119 44.8307C33.0035 44.274 32.8271 43.7071 32.4398 43.3128L28.4982 39.3027C27.5236 38.3125 28.0595 36.5844 29.4063 36.3785L34.8569 35.5477C35.3914 35.4666 35.8538 35.1157 36.0926 34.6098L38.5277 29.4558C39.1302 28.1814 40.8699 28.1814 41.4724 29.4558Z" fill="white"/>
</svg>
