<svg width="48" height="49" viewBox="0 0 48 49" fill="none" xmlns="http://www.w3.org/2000/svg">
<rect y="0.5" width="48" height="48" rx="24" fill="#6E75E8"/>
<path fill-rule="evenodd" clip-rule="evenodd" d="M25.0422 17.0869L26.7734 20.5455C26.9431 20.8851 27.2706 21.1205 27.6504 21.175L31.5232 21.7325C32.4801 21.8706 32.8608 23.0303 32.1683 23.6948L29.3678 26.3858C29.0926 26.6504 28.9673 27.0308 29.0324 27.4044L29.6933 31.2035C29.8561 32.1433 28.8558 32.8603 28.0006 32.4157L24.5391 30.6207C24.1997 30.4446 23.7933 30.4446 23.453 30.6207L19.9915 32.4157C19.1363 32.8603 18.136 32.1433 18.2997 31.2035L18.9597 27.4044C19.0248 27.0308 18.8995 26.6504 18.6243 26.3858L15.8237 23.6948C15.1312 23.0303 15.512 21.8706 16.4689 21.7325L20.3417 21.175C20.7215 21.1205 21.05 20.8851 21.2197 20.5455L22.9499 17.0869C23.378 16.2318 24.6141 16.2318 25.0422 17.0869Z" fill="white"/>
<circle cx="23.9998" cy="24.4993" r="19.2105" stroke="white" stroke-width="2"/>
<path d="M8.89694 27.5015V27.0775C10.7369 25.4695 11.5769 24.2935 11.5769 23.2935C11.5769 22.6215 11.2329 22.1255 10.5049 22.1255C10.0249 22.1255 9.60894 22.4215 9.28094 22.8055L8.85694 22.3975C9.33694 21.8775 9.84894 21.5335 10.5929 21.5335C11.6409 21.5335 12.2969 22.2135 12.2969 23.2615C12.2969 24.4375 11.3769 25.6295 9.99294 26.9335C10.3049 26.9015 10.6569 26.8775 10.9529 26.8775H12.5769V27.5015H8.89694ZM15.0624 27.6135C14.1424 27.6135 13.5744 27.2295 13.1904 26.8055L13.5584 26.3255C13.9024 26.6855 14.3424 27.0055 15.0144 27.0055C15.7104 27.0055 16.2064 26.5815 16.2064 25.9095C16.2064 25.2055 15.7344 24.7415 14.3824 24.7415V24.1735C15.5904 24.1735 15.9984 23.6935 15.9984 23.0535C15.9984 22.4935 15.6224 22.1255 15.0144 22.1255C14.5424 22.1255 14.1264 22.3655 13.7984 22.7015L13.4064 22.2295C13.8464 21.8295 14.3664 21.5335 15.0384 21.5335C16.0224 21.5335 16.7424 22.0695 16.7424 23.0055C16.7424 23.7175 16.3264 24.1895 15.7024 24.4135V24.4455C16.3904 24.6135 16.9504 25.1335 16.9504 25.9415C16.9504 26.9815 16.1104 27.6135 15.0624 27.6135ZM18.4759 27.6135C18.1879 27.6135 17.9559 27.3815 17.9559 27.0535C17.9559 26.7175 18.1879 26.4935 18.4759 26.4935C18.7719 26.4935 19.0119 26.7175 19.0119 27.0535C19.0119 27.3815 18.7719 27.6135 18.4759 27.6135ZM20.2785 27.5015V26.8935H21.5825V22.5255H20.5345V22.0535C21.0625 21.9655 21.4385 21.8295 21.7505 21.6375H22.3105V26.8935H23.4945V27.5015H20.2785ZM24.692 27.5015V26.8935H25.996V22.5255H24.948V22.0535C25.476 21.9655 25.852 21.8295 26.164 21.6375H26.724V26.8935H27.908V27.5015H24.692ZM29.5055 27.6135C29.2175 27.6135 28.9855 27.3815 28.9855 27.0535C28.9855 26.7175 29.2175 26.4935 29.5055 26.4935C29.8015 26.4935 30.0415 26.7175 30.0415 27.0535C30.0415 27.3815 29.8015 27.6135 29.5055 27.6135ZM31.3081 27.5015V26.8935H32.6121V22.5255H31.5641V22.0535C32.0921 21.9655 32.4681 21.8295 32.7801 21.6375H33.3401V26.8935H34.5241V27.5015H31.3081ZM37.4256 27.6135C36.2976 27.6135 35.4576 26.6455 35.4576 24.7095C35.4576 22.4135 36.4896 21.5335 37.6256 21.5335C38.2336 21.5335 38.6816 21.7895 39.0016 22.1335L38.5936 22.5815C38.3696 22.3095 38.0096 22.1415 37.6576 22.1415C36.8336 22.1415 36.1456 22.7895 36.1456 24.7095C36.1456 26.2135 36.6016 27.0375 37.4256 27.0375C37.9856 27.0375 38.4176 26.5015 38.4176 25.7095C38.4176 24.9095 38.0656 24.4055 37.3616 24.4055C36.9856 24.4055 36.5136 24.6295 36.1216 25.2135L36.0976 24.6295C36.4576 24.1575 37.0016 23.8695 37.4736 23.8695C38.4656 23.8695 39.1056 24.4775 39.1056 25.7095C39.1056 26.8455 38.3296 27.6135 37.4256 27.6135Z" fill="#636363"/>
</svg>
