<svg width="25" height="25" viewBox="0 0 25 25" fill="none" xmlns="http://www.w3.org/2000/svg">
<path fill-rule="evenodd" clip-rule="evenodd" d="M13.9724 1.45581L16.4089 6.60979C16.6477 7.11571 17.1087 7.46665 17.6432 7.54771L23.0938 8.3785C24.4406 8.58444 24.9764 10.3125 24.0017 11.3027L20.0603 15.3128C19.673 15.7071 19.4966 16.274 19.5882 16.8307L20.5184 22.4921C20.7475 23.8926 19.3397 24.9612 18.1361 24.2987L13.2643 21.6238C12.7867 21.3613 12.2147 21.3613 11.7358 21.6238L6.86402 24.2987C5.66041 24.9612 4.25258 23.8926 4.48297 22.4921L5.41186 16.8307C5.50348 16.274 5.32713 15.7071 4.93982 15.3128L0.998233 11.3027C0.0236045 10.3125 0.559546 8.58444 1.90629 8.3785L7.35689 7.54771C7.89143 7.46665 8.35376 7.11571 8.5926 6.60979L11.0277 1.45581C11.6302 0.181397 13.3699 0.181397 13.9724 1.45581Z" fill="white"/>
</svg>
