<svg width="55" height="11" viewBox="0 0 55 11" fill="none" xmlns="http://www.w3.org/2000/svg">
<path d="M5.44705 8.74126C5.64341 8.61651 5.89419 8.61651 6.09055 8.74126L7.63842 9.72466C8.08929 10.0111 8.66154 9.60991 8.54596 9.0884L8.11396 7.13912C8.06747 6.92935 8.13669 6.71073 8.29546 6.56595L9.76038 5.2301C10.1462 4.87824 9.92958 4.23558 9.40947 4.18913L7.53977 4.02216C7.31517 4.0021 7.12079 3.85781 7.03656 3.64864L6.32538 1.88232C6.12357 1.38112 5.41402 1.38112 5.21222 1.88232L4.50103 3.64864C4.41681 3.85781 4.22242 4.0021 3.99783 4.02216L2.12813 4.18913C1.60801 4.23558 1.39137 4.87824 1.77722 5.2301L3.24214 6.56595C3.4009 6.71073 3.47013 6.92935 3.42364 7.13912L2.99164 9.0884C2.87606 9.60991 3.44831 10.0111 3.89918 9.72466L5.44705 8.74126Z" fill="#636363"/>
<path d="M16.447 8.74126C16.6434 8.61651 16.8942 8.61651 17.0905 8.74126L18.6384 9.72466C19.0893 10.0111 19.6615 9.60991 19.546 9.0884L19.114 7.13912C19.0675 6.92935 19.1367 6.71073 19.2955 6.56595L20.7604 5.2301C21.1462 4.87824 20.9296 4.23558 20.4095 4.18913L18.5398 4.02216C18.3152 4.0021 18.1208 3.85781 18.0366 3.64864L17.3254 1.88232C17.1236 1.38112 16.414 1.38112 16.2122 1.88232L15.501 3.64864C15.4168 3.85781 15.2224 4.0021 14.9978 4.02216L13.1281 4.18913C12.608 4.23558 12.3914 4.87824 12.7772 5.2301L14.2421 6.56595C14.4009 6.71073 14.4701 6.92935 14.4236 7.13912L13.9916 9.0884C13.8761 9.60991 14.4483 10.0111 14.8992 9.72466L16.447 8.74126Z" fill="#636363"/>
<path d="M27.447 8.74126C27.6434 8.61651 27.8942 8.61651 28.0905 8.74126L29.6384 9.72466C30.0893 10.0111 30.6615 9.60991 30.546 9.0884L30.114 7.13912C30.0675 6.92935 30.1367 6.71073 30.2955 6.56595L31.7604 5.2301C32.1462 4.87824 31.9296 4.23558 31.4095 4.18913L29.5398 4.02216C29.3152 4.0021 29.1208 3.85781 29.0366 3.64864L28.3254 1.88232C28.1236 1.38112 27.414 1.38112 27.2122 1.88232L26.501 3.64864C26.4168 3.85781 26.2224 4.0021 25.9978 4.02216L24.1281 4.18913C23.608 4.23558 23.3914 4.87824 23.7772 5.2301L25.2421 6.56595C25.4009 6.71073 25.4701 6.92935 25.4236 7.13912L24.9916 9.0884C24.8761 9.60991 25.4483 10.0111 25.8992 9.72466L27.447 8.74126Z" fill="#636363"/>
<path d="M38.447 8.74126C38.6434 8.61651 38.8942 8.61651 39.0905 8.74126L40.6384 9.72466C41.0893 10.0111 41.6615 9.60991 41.546 9.0884L41.114 7.13912C41.0675 6.92935 41.1367 6.71073 41.2955 6.56595L42.7604 5.2301C43.1462 4.87824 42.9296 4.23558 42.4095 4.18913L40.5398 4.02216C40.3152 4.0021 40.1208 3.85781 40.0366 3.64864L39.3254 1.88232C39.1236 1.38112 38.414 1.38112 38.2122 1.88232L37.501 3.64864C37.4168 3.85781 37.2224 4.0021 36.9978 4.02216L35.1281 4.18913C34.608 4.23558 34.3914 4.87824 34.7772 5.2301L36.2421 6.56595C36.4009 6.71073 36.4701 6.92935 36.4236 7.13912L35.9916 9.0884C35.8761 9.60991 36.4483 10.0111 36.8992 9.72466L38.447 8.74126Z" fill="#636363"/>
<path d="M49.447 8.74126C49.6434 8.61651 49.8942 8.61651 50.0905 8.74126L51.6384 9.72466C52.0893 10.0111 52.6615 9.60991 52.546 9.0884L52.114 7.13912C52.0675 6.92935 52.1367 6.71073 52.2955 6.56595L53.7604 5.2301C54.1462 4.87824 53.9296 4.23558 53.4095 4.18913L51.5398 4.02216C51.3152 4.0021 51.1208 3.85781 51.0366 3.64864L50.3254 1.88232C50.1236 1.38112 49.414 1.38112 49.2122 1.88232L48.501 3.64864C48.4168 3.85781 48.2224 4.0021 47.9978 4.02216L46.1281 4.18913C45.608 4.23558 45.3914 4.87824 45.7772 5.2301L47.2421 6.56595C47.4009 6.71073 47.4701 6.92935 47.4236 7.13912L46.9916 9.0884C46.8761 9.60991 47.4483 10.0111 47.8992 9.72466L49.447 8.74126Z" fill="#CACACA"/>
</svg>
