<svg width="current" height="current" viewBox="0 0 24 25" fill="none" xmlns="http://www.w3.org/2000/svg">
<path d="M9.15299 5.908C10.42 3.636 11.053 2.5 12 2.5C12.947 2.5 13.58 3.636 14.847 5.908L15.175 6.496C15.535 7.142 15.715 7.465 15.995 7.678C16.275 7.891 16.625 7.97 17.325 8.128L17.961 8.272C20.421 8.829 21.65 9.107 21.943 10.048C22.235 10.988 21.397 11.969 19.72 13.93L19.286 14.437C18.81 14.994 18.571 15.273 18.464 15.617C18.357 15.962 18.393 16.334 18.465 17.077L18.531 17.754C18.784 20.371 18.911 21.679 18.145 22.26C17.379 22.842 16.227 22.311 13.925 21.251L13.328 20.977C12.674 20.675 12.347 20.525 12 20.525C11.653 20.525 11.326 20.675 10.671 20.977L10.076 21.251C7.77299 22.311 6.62099 22.841 5.85599 22.261C5.08899 21.679 5.21599 20.371 5.46899 17.754L5.53499 17.078C5.60699 16.334 5.64299 15.962 5.53499 15.618C5.42899 15.273 5.18999 14.994 4.71399 14.438L4.27999 13.93C2.60299 11.97 1.76499 10.989 2.05699 10.048C2.34999 9.107 3.57999 8.828 6.03999 8.272L6.67599 8.128C7.37499 7.97 7.72399 7.891 8.00499 7.678C8.28499 7.465 8.46499 7.142 8.82499 6.496L9.15299 5.908Z" fill="#CACACA" stroke="#CACACA" stroke-width="1.5"/>
</svg>
