<svg width="17" height="17" viewBox="0 0 17 17" fill="none" xmlns="http://www.w3.org/2000/svg">
<path d="M7.96375 13.6996C8.29102 13.4917 8.70898 13.4917 9.03625 13.6996L11.41 15.2078C12.1615 15.6852 13.1152 15.0165 12.9226 14.1473L12.2573 11.1452C12.1798 10.7956 12.2952 10.4312 12.5598 10.1899L14.8193 8.12946C15.4624 7.54304 15.1013 6.47193 14.2344 6.39452L11.358 6.13763C10.9836 6.1042 10.6596 5.86372 10.5193 5.51509L9.42763 2.80387C9.09129 1.96854 7.90871 1.96854 7.57237 2.80387L6.48072 5.5151C6.34036 5.86372 6.01638 6.1042 5.64205 6.13763L2.76555 6.39452C1.89869 6.47193 1.53762 7.54304 2.1807 8.12946L4.44023 10.1899C4.70484 10.4312 4.82022 10.7956 4.74274 11.1452L4.0774 14.1473C3.88477 15.0165 4.83852 15.6852 5.58996 15.2078L7.96375 13.6996Z" fill="black"/>
</svg>
