<svg width="11" height="11" viewBox="0 0 11 11" fill="none" xmlns="http://www.w3.org/2000/svg">
<path d="M5.17825 8.74126C5.37461 8.61651 5.62539 8.61651 5.82175 8.74126L7.36962 9.72466C7.82049 10.0111 8.39274 9.60991 8.27716 9.0884L7.84516 7.13912C7.79867 6.92935 7.8679 6.71073 8.02666 6.56595L9.49158 5.2301C9.87743 4.87824 9.66079 4.23558 9.14067 4.18913L7.27097 4.02216C7.04637 4.0021 6.85199 3.85781 6.76777 3.64864L6.05658 1.88232C5.85477 1.38112 5.14522 1.38112 4.94342 1.88232L4.23223 3.64864C4.14801 3.85781 3.95363 4.0021 3.72903 4.02216L1.85933 4.18913C1.33921 4.23558 1.12257 4.87824 1.50842 5.2301L2.97334 6.56595C3.1321 6.71073 3.20133 6.92935 3.15484 7.13912L2.72284 9.0884C2.60726 9.60991 3.17951 10.0111 3.63038 9.72466L5.17825 8.74126Z" fill="black"/>
</svg>
