<svg width="16" height="17" viewBox="0 0 16 17" fill="none" xmlns="http://www.w3.org/2000/svg">
<path d="M7.67825 13.5634C7.87461 13.4386 8.12539 13.4386 8.32175 13.5634L11.7236 15.7247C12.1745 16.0111 12.7467 15.6099 12.6312 15.0884L11.7072 10.9191C11.6607 10.7093 11.7299 10.4907 11.8887 10.346L14.9916 7.51641C15.3774 7.16456 15.1608 6.5219 14.6407 6.47545L10.614 6.11584C10.3894 6.09578 10.195 5.95149 10.1108 5.74232L8.55658 1.88232C8.35478 1.38112 7.64523 1.38112 7.44342 1.88232L5.88923 5.74232C5.80501 5.95149 5.61063 6.09578 5.38603 6.11584L1.35933 6.47545C0.839215 6.5219 0.62257 7.16456 1.00842 7.51641L4.11134 10.346C4.2701 10.4907 4.33933 10.7093 4.29284 10.9191L3.36884 15.0884C3.25326 15.6099 3.82551 16.0111 4.27638 15.7247L7.67825 13.5634Z" fill="black"/>
</svg>
