<svg width="current" height="current" viewBox="0 0 36 36" fill="none" xmlns="http://www.w3.org/2000/svg">
<path fill-rule="evenodd" clip-rule="evenodd" d="M5.3535 5.82802C5.68743 4.99304 6.26388 4.27726 7.00849 3.77301C7.7531 3.26876 8.63172 2.99917 9.531 2.99902H26.469C27.3683 2.99917 28.2469 3.26876 28.9915 3.77301C29.7361 4.27726 30.3126 4.99304 30.6465 5.82802L31.989 9.18202C32.3722 10.1407 32.4142 11.202 32.1077 12.188C31.8013 13.1739 31.1651 14.0245 30.306 14.597L30 14.804V29.999H31.5C31.8978 29.999 32.2794 30.1571 32.5607 30.4384C32.842 30.7197 33 31.1012 33 31.499C33 31.8968 32.842 32.2784 32.5607 32.5597C32.2794 32.841 31.8978 32.999 31.5 32.999H4.5C4.10218 32.999 3.72064 32.841 3.43934 32.5597C3.15804 32.2784 3 31.8968 3 31.499C3 31.1012 3.15804 30.7197 3.43934 30.4384C3.72064 30.1571 4.10218 29.999 4.5 29.999H6V14.8025L5.694 14.597C4.83485 14.0245 4.19871 13.1739 3.89228 12.188C3.58585 11.202 3.62777 10.1407 4.011 9.18202L5.3535 5.82802ZM9 15.893V29.999H13.5V23.999C13.5 22.8055 13.9741 21.661 14.818 20.817C15.6619 19.9731 16.8065 19.499 18 19.499C19.1935 19.499 20.3381 19.9731 21.182 20.817C22.0259 21.661 22.5 22.8055 22.5 23.999V29.999H27V15.893C26.13 15.893 25.26 15.641 24.504 15.137L22.5 13.802L20.496 15.137C19.7568 15.6298 18.8883 15.8927 18 15.8927C17.1116 15.8927 16.2432 15.6298 15.504 15.137L13.5 13.802L11.496 15.137C10.757 15.6301 9.88842 15.8932 9 15.893ZM19.5 29.999V23.999C19.5 23.6012 19.342 23.2197 19.0607 22.9384C18.7794 22.6571 18.3978 22.499 18 22.499C17.6022 22.499 17.2206 22.6571 16.9393 22.9384C16.658 23.2197 16.5 23.6012 16.5 23.999V29.999H19.5Z" fill="current"/>
</svg>
