<svg width="21" height="21" viewBox="0 0 21 21" fill="none" xmlns="http://www.w3.org/2000/svg">
<path fill-rule="evenodd" clip-rule="evenodd" d="M3.47425 3.73768C3.65977 3.2738 3.98002 2.87615 4.39369 2.59601C4.80736 2.31587 5.29548 2.1661 5.79508 2.16602H15.2051C15.7047 2.1661 16.1928 2.31587 16.6065 2.59601C17.0201 2.87615 17.3404 3.2738 17.5259 3.73768L18.2717 5.60102C18.4847 6.13362 18.5079 6.72324 18.3377 7.27098C18.1675 7.81872 17.8141 8.29126 17.3367 8.60935L17.1667 8.72435V17.166H18.0001C18.2211 17.166 18.4331 17.2538 18.5893 17.4101C18.7456 17.5664 18.8334 17.7783 18.8334 17.9993C18.8334 18.2204 18.7456 18.4323 18.5893 18.5886C18.4331 18.7449 18.2211 18.8327 18.0001 18.8327H3.00008C2.77907 18.8327 2.56711 18.7449 2.41083 18.5886C2.25455 18.4323 2.16675 18.2204 2.16675 17.9993C2.16675 17.7783 2.25455 17.5664 2.41083 17.4101C2.56711 17.2538 2.77907 17.166 3.00008 17.166H3.83341V8.72352L3.66341 8.60935C3.18611 8.29126 2.8327 7.81872 2.66246 7.27098C2.49222 6.72324 2.51551 6.13362 2.72841 5.60102L3.47425 3.73768ZM5.50008 9.32935V17.166H8.00008V13.8327C8.00008 13.1696 8.26347 12.5338 8.73231 12.0649C9.20115 11.5961 9.83704 11.3327 10.5001 11.3327C11.1631 11.3327 11.799 11.5961 12.2678 12.0649C12.7367 12.5338 13.0001 13.1696 13.0001 13.8327V17.166H15.5001V9.32935C15.0167 9.32935 14.5334 9.18935 14.1134 8.90935L13.0001 8.16768L11.8867 8.90935C11.4761 9.18309 10.9936 9.32917 10.5001 9.32917C10.0066 9.32917 9.52407 9.18309 9.11341 8.90935L8.00008 8.16768L6.88675 8.90935C6.47618 9.18329 5.99365 9.32944 5.50008 9.32935ZM11.3334 17.166V13.8327C11.3334 13.6117 11.2456 13.3997 11.0893 13.2434C10.9331 13.0871 10.7211 12.9993 10.5001 12.9993C10.2791 12.9993 10.0671 13.0871 9.91083 13.2434C9.75455 13.3997 9.66675 13.6117 9.66675 13.8327V17.166H11.3334Z" fill="#CACACA"/>
</svg>
